%TF.GenerationSoftware,KiCad,Pcbnew,6.0.2+dfsg-1*%
%TF.CreationDate,2023-09-24T18:39:50+02:00*%
%TF.ProjectId,lampetit-battery,6c616d70-6574-4697-942d-626174746572,rev?*%
%TF.SameCoordinates,Original*%
%TF.FileFunction,Soldermask,Top*%
%TF.FilePolarity,Negative*%
%FSLAX46Y46*%
G04 Gerber Fmt 4.6, Leading zero omitted, Abs format (unit mm)*
G04 Created by KiCad (PCBNEW 6.0.2+dfsg-1) date 2023-09-24 18:39:50*
%MOMM*%
%LPD*%
G01*
G04 APERTURE LIST*
G04 Aperture macros list*
%AMRoundRect*
0 Rectangle with rounded corners*
0 $1 Rounding radius*
0 $2 $3 $4 $5 $6 $7 $8 $9 X,Y pos of 4 corners*
0 Add a 4 corners polygon primitive as box body*
4,1,4,$2,$3,$4,$5,$6,$7,$8,$9,$2,$3,0*
0 Add four circle primitives for the rounded corners*
1,1,$1+$1,$2,$3*
1,1,$1+$1,$4,$5*
1,1,$1+$1,$6,$7*
1,1,$1+$1,$8,$9*
0 Add four rect primitives between the rounded corners*
20,1,$1+$1,$2,$3,$4,$5,0*
20,1,$1+$1,$4,$5,$6,$7,0*
20,1,$1+$1,$6,$7,$8,$9,0*
20,1,$1+$1,$8,$9,$2,$3,0*%
G04 Aperture macros list end*
%ADD10R,1.560000X1.560000*%
%ADD11C,1.560000*%
%ADD12R,1.500000X1.000000*%
%ADD13RoundRect,0.250000X-0.625000X0.400000X-0.625000X-0.400000X0.625000X-0.400000X0.625000X0.400000X0*%
%ADD14R,2.200000X2.500000*%
%ADD15R,2.200000X1.550000*%
%ADD16C,3.200000*%
%ADD17R,1.700000X1.700000*%
G04 APERTURE END LIST*
D10*
%TO.C,RV1*%
X119100000Y-69040000D03*
D11*
X116600000Y-64040000D03*
X114100000Y-69040000D03*
%TD*%
D12*
%TO.C,JP3*%
X121600000Y-94150000D03*
X121600000Y-95450000D03*
%TD*%
D13*
%TO.C,R5*%
X131600000Y-52750000D03*
X131600000Y-55850000D03*
%TD*%
D14*
%TO.C,D6*%
X121600000Y-89850000D03*
D15*
X121600000Y-87275000D03*
%TD*%
D16*
%TO.C,REF\u002A\u002A*%
X128600000Y-60300000D03*
%TD*%
D13*
%TO.C,R7*%
X145600000Y-52750000D03*
X145600000Y-55850000D03*
%TD*%
D12*
%TO.C,JP2*%
X108600000Y-94150000D03*
X108600000Y-95450000D03*
%TD*%
D14*
%TO.C,D11*%
X150600000Y-74850000D03*
D15*
X150600000Y-72275000D03*
%TD*%
D13*
%TO.C,R8*%
X149600000Y-52750000D03*
X149600000Y-55850000D03*
%TD*%
%TO.C,R3*%
X119600000Y-52750000D03*
X119600000Y-55850000D03*
%TD*%
D14*
%TO.C,D4*%
X121600000Y-60375000D03*
D15*
X121600000Y-57800000D03*
%TD*%
D14*
%TO.C,D2*%
X106600000Y-74850000D03*
D15*
X106600000Y-72275000D03*
%TD*%
D14*
%TO.C,D5*%
X121600000Y-74850000D03*
D15*
X121600000Y-72275000D03*
%TD*%
D12*
%TO.C,JP5*%
X149600000Y-94150000D03*
X149600000Y-95450000D03*
%TD*%
D14*
%TO.C,D9*%
X136600000Y-89850000D03*
D15*
X136600000Y-87275000D03*
%TD*%
D17*
%TO.C,J2*%
X144100000Y-88800000D03*
%TD*%
%TO.C,J1*%
X114100000Y-59300000D03*
%TD*%
D13*
%TO.C,R1*%
X107600000Y-52750000D03*
X107600000Y-55850000D03*
%TD*%
D14*
%TO.C,D3*%
X106600000Y-89800000D03*
D15*
X106600000Y-87225000D03*
%TD*%
D13*
%TO.C,R2*%
X111600000Y-52750000D03*
X111600000Y-55850000D03*
%TD*%
D14*
%TO.C,D10*%
X150600000Y-60375000D03*
D15*
X150600000Y-57800000D03*
%TD*%
D14*
%TO.C,D8*%
X136600000Y-74850000D03*
D15*
X136600000Y-72275000D03*
%TD*%
D14*
%TO.C,D12*%
X150600000Y-89850000D03*
D15*
X150600000Y-87275000D03*
%TD*%
D12*
%TO.C,JP4*%
X136600000Y-94150000D03*
X136600000Y-95450000D03*
%TD*%
%TO.C,JP1*%
X114100000Y-54150000D03*
X114100000Y-55450000D03*
%TD*%
D13*
%TO.C,R4*%
X125600000Y-52750000D03*
X125600000Y-55850000D03*
%TD*%
D14*
%TO.C,D7*%
X136600000Y-60375000D03*
D15*
X136600000Y-57800000D03*
%TD*%
D16*
%TO.C,REF\u002A\u002A*%
X128600000Y-87300000D03*
%TD*%
D14*
%TO.C,D1*%
X106600000Y-60375000D03*
D15*
X106600000Y-57800000D03*
%TD*%
D13*
%TO.C,R6*%
X140600000Y-52750000D03*
X140600000Y-55850000D03*
%TD*%
M02*
