%TF.GenerationSoftware,KiCad,Pcbnew,6.0.2+dfsg-1*%
%TF.CreationDate,2023-09-24T18:39:48+02:00*%
%TF.ProjectId,lampetit-battery,6c616d70-6574-4697-942d-626174746572,rev?*%
%TF.SameCoordinates,Original*%
%TF.FileFunction,Copper,L2,Bot*%
%TF.FilePolarity,Positive*%
%FSLAX46Y46*%
G04 Gerber Fmt 4.6, Leading zero omitted, Abs format (unit mm)*
G04 Created by KiCad (PCBNEW 6.0.2+dfsg-1) date 2023-09-24 18:39:48*
%MOMM*%
%LPD*%
G01*
G04 APERTURE LIST*
%TA.AperFunction,ComponentPad*%
%ADD10R,1.560000X1.560000*%
%TD*%
%TA.AperFunction,ComponentPad*%
%ADD11C,1.560000*%
%TD*%
%TA.AperFunction,ComponentPad*%
%ADD12R,1.700000X1.700000*%
%TD*%
%TA.AperFunction,ViaPad*%
%ADD13C,0.800000*%
%TD*%
G04 APERTURE END LIST*
D10*
%TO.P,RV1,1,1*%
%TO.N,unconnected-(RV1-Pad1)*%
X119100000Y-69040000D03*
D11*
%TO.P,RV1,2,2*%
%TO.N,Net-(JP1-Pad1)*%
X116600000Y-64040000D03*
%TO.P,RV1,3,3*%
%TO.N,+12V*%
X114100000Y-69040000D03*
%TD*%
D12*
%TO.P,J2,1,Pin_1*%
%TO.N,GND*%
X144100000Y-88800000D03*
%TD*%
%TO.P,J1,1,Pin_1*%
%TO.N,+12V*%
X114100000Y-59300000D03*
%TD*%
D13*
%TO.N,/L1_1*%
X103600000Y-60800000D03*
X103600000Y-71800000D03*
X109600000Y-71800000D03*
X109600000Y-60800000D03*
X111600000Y-60800000D03*
X111600000Y-68800000D03*
%TO.N,/L1_2*%
X112100000Y-86800000D03*
X103600000Y-75800000D03*
X109600000Y-86800000D03*
X103600000Y-86800000D03*
X109600000Y-75800000D03*
X111600000Y-78800000D03*
%TO.N,/L2_2*%
X126600000Y-82800000D03*
X119100000Y-75800000D03*
X116100000Y-78800000D03*
X116100000Y-86800000D03*
X124100000Y-75800000D03*
X124100000Y-86800000D03*
X119100000Y-86800000D03*
X126600000Y-75800000D03*
%TO.N,/L1_3*%
X112100000Y-93300000D03*
X112100000Y-90300000D03*
X103600000Y-90300000D03*
X109600000Y-90300000D03*
%TO.N,/L2_1*%
X126600000Y-68800000D03*
X119100000Y-71800000D03*
X119100000Y-63800000D03*
X126600000Y-71800000D03*
X124100000Y-60800000D03*
X124100000Y-71800000D03*
X119100000Y-60800000D03*
X124100000Y-63800000D03*
X116100000Y-68800000D03*
X126600000Y-63800000D03*
X124100000Y-68800000D03*
%TO.N,/L2_3*%
X119100000Y-93300000D03*
X126600000Y-93300000D03*
X124100000Y-93300000D03*
X124100000Y-90300000D03*
X116100000Y-90300000D03*
X119100000Y-90300000D03*
X116100000Y-93300000D03*
%TO.N,/L3_1*%
X134100000Y-71800000D03*
X139100000Y-60800000D03*
X141600000Y-67800000D03*
X131100000Y-71800000D03*
X134100000Y-60800000D03*
X139100000Y-71800000D03*
X141600000Y-60800000D03*
%TO.N,/L3_2*%
X141600000Y-79300000D03*
X141600000Y-86800000D03*
X134100000Y-86800000D03*
X139600000Y-75800000D03*
X131600000Y-75800000D03*
X131100000Y-82800000D03*
X139100000Y-86800000D03*
X134600000Y-75800000D03*
%TO.N,/L3_3*%
X134100000Y-93300000D03*
X142100000Y-90300000D03*
X142100000Y-93300000D03*
X131100000Y-93300000D03*
X139100000Y-93300000D03*
X134100000Y-90300000D03*
X139100000Y-90300000D03*
%TO.N,/L4_1*%
X147600000Y-71800000D03*
X153100000Y-60800000D03*
X153100000Y-71800000D03*
X144600000Y-60800000D03*
X144600000Y-67800000D03*
X147600000Y-60800000D03*
%TO.N,/L4_2*%
X147600000Y-86800000D03*
X153100000Y-86800000D03*
X153100000Y-75800000D03*
X147600000Y-75800000D03*
X145100000Y-86800000D03*
X144600000Y-79300000D03*
%TO.N,/L4_3*%
X147600000Y-90300000D03*
X153600000Y-90300000D03*
X146100000Y-90300000D03*
X146100000Y-93800000D03*
%TO.N,/L1_0*%
X103600000Y-57300000D03*
X103600000Y-55300000D03*
X109600000Y-57300000D03*
%TO.N,/L2_0*%
X119100000Y-57300000D03*
X124100000Y-57300000D03*
X122600000Y-54300000D03*
%TO.N,/L3_0*%
X141600000Y-57300000D03*
X137600000Y-53800000D03*
X139100000Y-57300000D03*
X133600000Y-57300000D03*
X135600000Y-53800000D03*
%TO.N,/L4_0*%
X153100000Y-55800000D03*
X153100000Y-57300000D03*
X147600000Y-54300000D03*
X147600000Y-57300000D03*
X144600000Y-57300000D03*
%TD*%
%TA.AperFunction,Conductor*%
%TO.N,/L1_3*%
G36*
X113542121Y-89320002D02*
G01*
X113588614Y-89373658D01*
X113600000Y-89426000D01*
X113600000Y-95674000D01*
X113579998Y-95742121D01*
X113526342Y-95788614D01*
X113474000Y-95800000D01*
X106234000Y-95800000D01*
X106165879Y-95779998D01*
X106119386Y-95726342D01*
X106108000Y-95674000D01*
X106108000Y-93308702D01*
X106108002Y-93307932D01*
X106108421Y-93239322D01*
X106108476Y-93230348D01*
X106106010Y-93221719D01*
X106106009Y-93221714D01*
X106100361Y-93201952D01*
X106096783Y-93185191D01*
X106093870Y-93164848D01*
X106093867Y-93164838D01*
X106092595Y-93155955D01*
X106081979Y-93132605D01*
X106075536Y-93115093D01*
X106070954Y-93099063D01*
X106068488Y-93090435D01*
X106052726Y-93065452D01*
X106044596Y-93050386D01*
X106032367Y-93023490D01*
X106015626Y-93004061D01*
X106004521Y-92989053D01*
X105995630Y-92974961D01*
X105990840Y-92967369D01*
X105968703Y-92947818D01*
X105956659Y-92935626D01*
X105943239Y-92920051D01*
X105943237Y-92920050D01*
X105937381Y-92913253D01*
X105929853Y-92908374D01*
X105929850Y-92908371D01*
X105915861Y-92899304D01*
X105900987Y-92888014D01*
X105888502Y-92876988D01*
X105881772Y-92871044D01*
X105873646Y-92867229D01*
X105873645Y-92867228D01*
X105867979Y-92864568D01*
X105855034Y-92858490D01*
X105840065Y-92850176D01*
X105815273Y-92834107D01*
X105790709Y-92826761D01*
X105773264Y-92820099D01*
X105750052Y-92809201D01*
X105720870Y-92804657D01*
X105704151Y-92800874D01*
X105684464Y-92794986D01*
X105684461Y-92794985D01*
X105675859Y-92792413D01*
X105666884Y-92792358D01*
X105666883Y-92792358D01*
X105660190Y-92792317D01*
X105641444Y-92792203D01*
X105640672Y-92792170D01*
X105639577Y-92792000D01*
X105608702Y-92792000D01*
X105607932Y-92791998D01*
X105534284Y-92791548D01*
X105534283Y-92791548D01*
X105530348Y-92791524D01*
X105529004Y-92791908D01*
X105527659Y-92792000D01*
X102726000Y-92792000D01*
X102657879Y-92771998D01*
X102611386Y-92718342D01*
X102600000Y-92666000D01*
X102600000Y-89426000D01*
X102620002Y-89357879D01*
X102673658Y-89311386D01*
X102726000Y-89300000D01*
X113474000Y-89300000D01*
X113542121Y-89320002D01*
G37*
%TD.AperFunction*%
%TD*%
%TA.AperFunction,Conductor*%
%TO.N,/L1_2*%
G36*
X113542121Y-74320002D02*
G01*
X113588614Y-74373658D01*
X113600000Y-74426000D01*
X113600000Y-88174000D01*
X113579998Y-88242121D01*
X113526342Y-88288614D01*
X113474000Y-88300000D01*
X102726000Y-88300000D01*
X102657879Y-88279998D01*
X102611386Y-88226342D01*
X102600000Y-88174000D01*
X102600000Y-74426000D01*
X102620002Y-74357879D01*
X102673658Y-74311386D01*
X102726000Y-74300000D01*
X113474000Y-74300000D01*
X113542121Y-74320002D01*
G37*
%TD.AperFunction*%
%TD*%
%TA.AperFunction,Conductor*%
%TO.N,/L3_3*%
G36*
X142683621Y-89320002D02*
G01*
X142730114Y-89373658D01*
X142741500Y-89426000D01*
X142741500Y-89698134D01*
X142748255Y-89760316D01*
X142799385Y-89896705D01*
X142886739Y-90013261D01*
X143003295Y-90100615D01*
X143139684Y-90151745D01*
X143201866Y-90158500D01*
X143474000Y-90158500D01*
X143542121Y-90178502D01*
X143588614Y-90232158D01*
X143600000Y-90284500D01*
X143600000Y-95674000D01*
X143579998Y-95742121D01*
X143526342Y-95788614D01*
X143474000Y-95800000D01*
X129226000Y-95800000D01*
X129157879Y-95779998D01*
X129111386Y-95726342D01*
X129100000Y-95674000D01*
X129100000Y-89448823D01*
X129120002Y-89380702D01*
X129173658Y-89334209D01*
X129183941Y-89330050D01*
X129248392Y-89307227D01*
X129290451Y-89300000D01*
X142615500Y-89300000D01*
X142683621Y-89320002D01*
G37*
%TD.AperFunction*%
%TD*%
%TA.AperFunction,Conductor*%
%TO.N,/L3_2*%
G36*
X142542121Y-74320002D02*
G01*
X142588614Y-74373658D01*
X142600000Y-74426000D01*
X142600000Y-88174000D01*
X142579998Y-88242121D01*
X142526342Y-88288614D01*
X142474000Y-88300000D01*
X130656686Y-88300000D01*
X130588565Y-88279998D01*
X130542072Y-88226342D01*
X130531968Y-88156068D01*
X130541311Y-88123359D01*
X130588483Y-88015898D01*
X130667244Y-87739406D01*
X130707751Y-87454784D01*
X130709257Y-87167297D01*
X130671732Y-86882266D01*
X130595871Y-86604964D01*
X130483077Y-86340524D01*
X130335439Y-86093839D01*
X130155687Y-85869472D01*
X129947149Y-85671577D01*
X129713683Y-85503814D01*
X129691843Y-85492250D01*
X129668654Y-85479972D01*
X129459608Y-85369288D01*
X129189627Y-85270489D01*
X129189662Y-85270392D01*
X129131009Y-85232931D01*
X129101334Y-85168434D01*
X129100000Y-85150150D01*
X129100000Y-74426000D01*
X129120002Y-74357879D01*
X129173658Y-74311386D01*
X129226000Y-74300000D01*
X142474000Y-74300000D01*
X142542121Y-74320002D01*
G37*
%TD.AperFunction*%
%TD*%
%TA.AperFunction,Conductor*%
%TO.N,/L2_1*%
G36*
X126611435Y-59320002D02*
G01*
X126657928Y-59373658D01*
X126668032Y-59443932D01*
X126658689Y-59476641D01*
X126611517Y-59584102D01*
X126532756Y-59860594D01*
X126492249Y-60145216D01*
X126492227Y-60149505D01*
X126492226Y-60149512D01*
X126490765Y-60428417D01*
X126490743Y-60432703D01*
X126528268Y-60717734D01*
X126604129Y-60995036D01*
X126716923Y-61259476D01*
X126864561Y-61506161D01*
X127044313Y-61730528D01*
X127252851Y-61928423D01*
X127486317Y-62096186D01*
X127490112Y-62098195D01*
X127490113Y-62098196D01*
X127531346Y-62120028D01*
X127740392Y-62230712D01*
X128010373Y-62329511D01*
X128010338Y-62329608D01*
X128068991Y-62367069D01*
X128098666Y-62431566D01*
X128100000Y-62449850D01*
X128100000Y-73174000D01*
X128079998Y-73242121D01*
X128026342Y-73288614D01*
X127974000Y-73300000D01*
X114726000Y-73300000D01*
X114657879Y-73279998D01*
X114611386Y-73226342D01*
X114600000Y-73174000D01*
X114600000Y-70308819D01*
X114620002Y-70240698D01*
X114672751Y-70194624D01*
X114741726Y-70162461D01*
X114741730Y-70162459D01*
X114746711Y-70160136D01*
X114931396Y-70030819D01*
X115090819Y-69871396D01*
X115093103Y-69868134D01*
X117811500Y-69868134D01*
X117818255Y-69930316D01*
X117869385Y-70066705D01*
X117956739Y-70183261D01*
X118073295Y-70270615D01*
X118209684Y-70321745D01*
X118271866Y-70328500D01*
X119928134Y-70328500D01*
X119990316Y-70321745D01*
X120126705Y-70270615D01*
X120243261Y-70183261D01*
X120330615Y-70066705D01*
X120381745Y-69930316D01*
X120388500Y-69868134D01*
X120388500Y-68211866D01*
X120381745Y-68149684D01*
X120330615Y-68013295D01*
X120243261Y-67896739D01*
X120126705Y-67809385D01*
X119990316Y-67758255D01*
X119928134Y-67751500D01*
X118271866Y-67751500D01*
X118209684Y-67758255D01*
X118073295Y-67809385D01*
X117956739Y-67896739D01*
X117869385Y-68013295D01*
X117818255Y-68149684D01*
X117811500Y-68211866D01*
X117811500Y-69868134D01*
X115093103Y-69868134D01*
X115220136Y-69686711D01*
X115315419Y-69482376D01*
X115373772Y-69264600D01*
X115393422Y-69040000D01*
X115373772Y-68815400D01*
X115315419Y-68597624D01*
X115220136Y-68393289D01*
X115090819Y-68208604D01*
X114931396Y-68049181D01*
X114746711Y-67919864D01*
X114741730Y-67917541D01*
X114741726Y-67917539D01*
X114672751Y-67885376D01*
X114619465Y-67838459D01*
X114600000Y-67771181D01*
X114600000Y-64040000D01*
X115306578Y-64040000D01*
X115326228Y-64264600D01*
X115384581Y-64482376D01*
X115479864Y-64686711D01*
X115609181Y-64871396D01*
X115768604Y-65030819D01*
X115953289Y-65160136D01*
X115958267Y-65162457D01*
X115958270Y-65162459D01*
X116152642Y-65253096D01*
X116157624Y-65255419D01*
X116162932Y-65256841D01*
X116162934Y-65256842D01*
X116370085Y-65312348D01*
X116370087Y-65312348D01*
X116375400Y-65313772D01*
X116600000Y-65333422D01*
X116824600Y-65313772D01*
X116829913Y-65312348D01*
X116829915Y-65312348D01*
X117037066Y-65256842D01*
X117037068Y-65256841D01*
X117042376Y-65255419D01*
X117047358Y-65253096D01*
X117241730Y-65162459D01*
X117241733Y-65162457D01*
X117246711Y-65160136D01*
X117431396Y-65030819D01*
X117590819Y-64871396D01*
X117720136Y-64686711D01*
X117815419Y-64482376D01*
X117873772Y-64264600D01*
X117893422Y-64040000D01*
X117873772Y-63815400D01*
X117815419Y-63597624D01*
X117720136Y-63393289D01*
X117590819Y-63208604D01*
X117431396Y-63049181D01*
X117246711Y-62919864D01*
X117241733Y-62917543D01*
X117241730Y-62917541D01*
X117047358Y-62826904D01*
X117047357Y-62826903D01*
X117042376Y-62824581D01*
X117037068Y-62823159D01*
X117037066Y-62823158D01*
X116829915Y-62767652D01*
X116829913Y-62767652D01*
X116824600Y-62766228D01*
X116600000Y-62746578D01*
X116375400Y-62766228D01*
X116370087Y-62767652D01*
X116370085Y-62767652D01*
X116162934Y-62823158D01*
X116162932Y-62823159D01*
X116157624Y-62824581D01*
X116152643Y-62826903D01*
X116152642Y-62826904D01*
X115958270Y-62917541D01*
X115958267Y-62917543D01*
X115953289Y-62919864D01*
X115768604Y-63049181D01*
X115609181Y-63208604D01*
X115479864Y-63393289D01*
X115384581Y-63597624D01*
X115326228Y-63815400D01*
X115306578Y-64040000D01*
X114600000Y-64040000D01*
X114600000Y-60784500D01*
X114620002Y-60716379D01*
X114673658Y-60669886D01*
X114726000Y-60658500D01*
X114998134Y-60658500D01*
X115060316Y-60651745D01*
X115196705Y-60600615D01*
X115313261Y-60513261D01*
X115400615Y-60396705D01*
X115451745Y-60260316D01*
X115458500Y-60198134D01*
X115458500Y-59426000D01*
X115478502Y-59357879D01*
X115532158Y-59311386D01*
X115584500Y-59300000D01*
X126543314Y-59300000D01*
X126611435Y-59320002D01*
G37*
%TD.AperFunction*%
%TD*%
%TA.AperFunction,Conductor*%
%TO.N,/L1_0*%
G36*
X113542121Y-51820002D02*
G01*
X113588614Y-51873658D01*
X113600000Y-51926000D01*
X113600000Y-57815500D01*
X113579998Y-57883621D01*
X113526342Y-57930114D01*
X113474000Y-57941500D01*
X113201866Y-57941500D01*
X113139684Y-57948255D01*
X113003295Y-57999385D01*
X112886739Y-58086739D01*
X112881358Y-58093919D01*
X112804767Y-58196113D01*
X112804765Y-58196116D01*
X112799385Y-58203295D01*
X112796235Y-58211698D01*
X112793788Y-58218226D01*
X112751149Y-58274992D01*
X112684588Y-58299694D01*
X112675805Y-58300000D01*
X102726000Y-58300000D01*
X102657879Y-58279998D01*
X102611386Y-58226342D01*
X102600000Y-58174000D01*
X102600000Y-54934000D01*
X102620002Y-54865879D01*
X102673658Y-54819386D01*
X102726000Y-54808000D01*
X105591298Y-54808000D01*
X105592069Y-54808002D01*
X105669652Y-54808476D01*
X105678281Y-54806010D01*
X105678286Y-54806009D01*
X105698048Y-54800361D01*
X105714809Y-54796783D01*
X105735152Y-54793870D01*
X105735162Y-54793867D01*
X105744045Y-54792595D01*
X105767395Y-54781979D01*
X105784907Y-54775536D01*
X105800937Y-54770954D01*
X105809565Y-54768488D01*
X105834548Y-54752726D01*
X105849614Y-54744596D01*
X105876510Y-54732367D01*
X105895939Y-54715626D01*
X105910947Y-54704521D01*
X105925039Y-54695630D01*
X105932631Y-54690840D01*
X105952182Y-54668703D01*
X105964374Y-54656659D01*
X105979949Y-54643239D01*
X105979950Y-54643237D01*
X105986747Y-54637381D01*
X105991626Y-54629853D01*
X105991629Y-54629850D01*
X106000696Y-54615861D01*
X106011986Y-54600987D01*
X106023012Y-54588502D01*
X106028956Y-54581772D01*
X106041510Y-54555034D01*
X106049824Y-54540065D01*
X106065893Y-54515273D01*
X106073239Y-54490709D01*
X106079901Y-54473264D01*
X106086983Y-54458179D01*
X106090799Y-54450052D01*
X106095343Y-54420870D01*
X106099126Y-54404151D01*
X106105014Y-54384464D01*
X106105015Y-54384461D01*
X106107587Y-54375859D01*
X106107797Y-54341444D01*
X106107830Y-54340672D01*
X106108000Y-54339577D01*
X106108000Y-54308702D01*
X106108002Y-54307932D01*
X106108452Y-54234284D01*
X106108452Y-54234283D01*
X106108476Y-54230348D01*
X106108092Y-54229004D01*
X106108000Y-54227659D01*
X106108000Y-51926000D01*
X106128002Y-51857879D01*
X106181658Y-51811386D01*
X106234000Y-51800000D01*
X113474000Y-51800000D01*
X113542121Y-51820002D01*
G37*
%TD.AperFunction*%
%TD*%
%TA.AperFunction,Conductor*%
%TO.N,/L4_0*%
G36*
X151034121Y-51820002D02*
G01*
X151080614Y-51873658D01*
X151092000Y-51926000D01*
X151092000Y-54291298D01*
X151091998Y-54292068D01*
X151091524Y-54369652D01*
X151093990Y-54378281D01*
X151093991Y-54378286D01*
X151099639Y-54398048D01*
X151103217Y-54414809D01*
X151106130Y-54435152D01*
X151106133Y-54435162D01*
X151107405Y-54444045D01*
X151118021Y-54467395D01*
X151124464Y-54484907D01*
X151131512Y-54509565D01*
X151147274Y-54534548D01*
X151155404Y-54549614D01*
X151167633Y-54576510D01*
X151184374Y-54595939D01*
X151195479Y-54610947D01*
X151209160Y-54632631D01*
X151215888Y-54638573D01*
X151231296Y-54652181D01*
X151243340Y-54664373D01*
X151262619Y-54686747D01*
X151270147Y-54691626D01*
X151270150Y-54691629D01*
X151284139Y-54700696D01*
X151299013Y-54711986D01*
X151318228Y-54728956D01*
X151326354Y-54732771D01*
X151326355Y-54732772D01*
X151332021Y-54735432D01*
X151344966Y-54741510D01*
X151359935Y-54749824D01*
X151384727Y-54765893D01*
X151393327Y-54768465D01*
X151409290Y-54773239D01*
X151426736Y-54779901D01*
X151449948Y-54790799D01*
X151479130Y-54795343D01*
X151495849Y-54799126D01*
X151515536Y-54805014D01*
X151515539Y-54805015D01*
X151524141Y-54807587D01*
X151533116Y-54807642D01*
X151533117Y-54807642D01*
X151539810Y-54807683D01*
X151558556Y-54807797D01*
X151559328Y-54807830D01*
X151560423Y-54808000D01*
X151591298Y-54808000D01*
X151592068Y-54808002D01*
X151665716Y-54808452D01*
X151665717Y-54808452D01*
X151669652Y-54808476D01*
X151670996Y-54808092D01*
X151672341Y-54808000D01*
X154474000Y-54808000D01*
X154542121Y-54828002D01*
X154588614Y-54881658D01*
X154600000Y-54934000D01*
X154600000Y-58174000D01*
X154579998Y-58242121D01*
X154526342Y-58288614D01*
X154474000Y-58300000D01*
X143726000Y-58300000D01*
X143657879Y-58279998D01*
X143611386Y-58226342D01*
X143600000Y-58174000D01*
X143600000Y-51926000D01*
X143620002Y-51857879D01*
X143673658Y-51811386D01*
X143726000Y-51800000D01*
X150966000Y-51800000D01*
X151034121Y-51820002D01*
G37*
%TD.AperFunction*%
%TD*%
%TA.AperFunction,Conductor*%
%TO.N,/L2_3*%
G36*
X127950700Y-89307674D02*
G01*
X127960844Y-89311386D01*
X128010373Y-89329511D01*
X128010338Y-89329608D01*
X128068991Y-89367069D01*
X128098666Y-89431566D01*
X128100000Y-89449850D01*
X128100000Y-95674000D01*
X128079998Y-95742121D01*
X128026342Y-95788614D01*
X127974000Y-95800000D01*
X114726000Y-95800000D01*
X114657879Y-95779998D01*
X114611386Y-95726342D01*
X114600000Y-95674000D01*
X114600000Y-89426000D01*
X114620002Y-89357879D01*
X114673658Y-89311386D01*
X114726000Y-89300000D01*
X127907399Y-89300000D01*
X127950700Y-89307674D01*
G37*
%TD.AperFunction*%
%TD*%
%TA.AperFunction,Conductor*%
%TO.N,/L1_1*%
G36*
X112683621Y-59320002D02*
G01*
X112730114Y-59373658D01*
X112741500Y-59426000D01*
X112741500Y-60198134D01*
X112748255Y-60260316D01*
X112799385Y-60396705D01*
X112886739Y-60513261D01*
X113003295Y-60600615D01*
X113139684Y-60651745D01*
X113201866Y-60658500D01*
X113474000Y-60658500D01*
X113542121Y-60678502D01*
X113588614Y-60732158D01*
X113600000Y-60784500D01*
X113600000Y-67771181D01*
X113579998Y-67839302D01*
X113527249Y-67885376D01*
X113458274Y-67917539D01*
X113458270Y-67917541D01*
X113453289Y-67919864D01*
X113268604Y-68049181D01*
X113109181Y-68208604D01*
X112979864Y-68393289D01*
X112884581Y-68597624D01*
X112826228Y-68815400D01*
X112806578Y-69040000D01*
X112826228Y-69264600D01*
X112884581Y-69482376D01*
X112979864Y-69686711D01*
X113109181Y-69871396D01*
X113268604Y-70030819D01*
X113453289Y-70160136D01*
X113458270Y-70162459D01*
X113458274Y-70162461D01*
X113527249Y-70194624D01*
X113580535Y-70241541D01*
X113600000Y-70308819D01*
X113600000Y-73174000D01*
X113579998Y-73242121D01*
X113526342Y-73288614D01*
X113474000Y-73300000D01*
X102726000Y-73300000D01*
X102657879Y-73279998D01*
X102611386Y-73226342D01*
X102600000Y-73174000D01*
X102600000Y-59426000D01*
X102620002Y-59357879D01*
X102673658Y-59311386D01*
X102726000Y-59300000D01*
X112615500Y-59300000D01*
X112683621Y-59320002D01*
G37*
%TD.AperFunction*%
%TD*%
%TA.AperFunction,Conductor*%
%TO.N,/L3_0*%
G36*
X142542121Y-51820002D02*
G01*
X142588614Y-51873658D01*
X142600000Y-51926000D01*
X142600000Y-58174000D01*
X142579998Y-58242121D01*
X142526342Y-58288614D01*
X142474000Y-58300000D01*
X129292601Y-58300000D01*
X129249300Y-58292326D01*
X129193655Y-58271963D01*
X129193654Y-58271963D01*
X129189627Y-58270489D01*
X129189662Y-58270392D01*
X129131009Y-58232931D01*
X129101334Y-58168434D01*
X129100000Y-58150150D01*
X129100000Y-51926000D01*
X129120002Y-51857879D01*
X129173658Y-51811386D01*
X129226000Y-51800000D01*
X142474000Y-51800000D01*
X142542121Y-51820002D01*
G37*
%TD.AperFunction*%
%TD*%
%TA.AperFunction,Conductor*%
%TO.N,/L4_3*%
G36*
X154542121Y-89320002D02*
G01*
X154588614Y-89373658D01*
X154600000Y-89426000D01*
X154600000Y-92666000D01*
X154579998Y-92734121D01*
X154526342Y-92780614D01*
X154474000Y-92792000D01*
X151608702Y-92792000D01*
X151607932Y-92791998D01*
X151607078Y-92791993D01*
X151530348Y-92791524D01*
X151521719Y-92793990D01*
X151521714Y-92793991D01*
X151501952Y-92799639D01*
X151485191Y-92803217D01*
X151464848Y-92806130D01*
X151464838Y-92806133D01*
X151455955Y-92807405D01*
X151432605Y-92818021D01*
X151415093Y-92824464D01*
X151402200Y-92828149D01*
X151390435Y-92831512D01*
X151365452Y-92847274D01*
X151350386Y-92855404D01*
X151323490Y-92867633D01*
X151304061Y-92884374D01*
X151289053Y-92895479D01*
X151267369Y-92909160D01*
X151261427Y-92915888D01*
X151247819Y-92931296D01*
X151235627Y-92943340D01*
X151213253Y-92962619D01*
X151208374Y-92970147D01*
X151208371Y-92970150D01*
X151199304Y-92984139D01*
X151188014Y-92999013D01*
X151171044Y-93018228D01*
X151158490Y-93044966D01*
X151150176Y-93059935D01*
X151134107Y-93084727D01*
X151131535Y-93093327D01*
X151126761Y-93109290D01*
X151120099Y-93126736D01*
X151109201Y-93149948D01*
X151107820Y-93158821D01*
X151104658Y-93179128D01*
X151100874Y-93195849D01*
X151094986Y-93215536D01*
X151094985Y-93215539D01*
X151092413Y-93224141D01*
X151092358Y-93233116D01*
X151092358Y-93233117D01*
X151092203Y-93258546D01*
X151092170Y-93259328D01*
X151092000Y-93260423D01*
X151092000Y-93291298D01*
X151091998Y-93292068D01*
X151091524Y-93369652D01*
X151091908Y-93370996D01*
X151092000Y-93372341D01*
X151092000Y-95674000D01*
X151071998Y-95742121D01*
X151018342Y-95788614D01*
X150966000Y-95800000D01*
X144726000Y-95800000D01*
X144657879Y-95779998D01*
X144611386Y-95726342D01*
X144600000Y-95674000D01*
X144600000Y-90284500D01*
X144620002Y-90216379D01*
X144673658Y-90169886D01*
X144726000Y-90158500D01*
X144998134Y-90158500D01*
X145060316Y-90151745D01*
X145196705Y-90100615D01*
X145313261Y-90013261D01*
X145400615Y-89896705D01*
X145451745Y-89760316D01*
X145458500Y-89698134D01*
X145458500Y-89426000D01*
X145478502Y-89357879D01*
X145532158Y-89311386D01*
X145584500Y-89300000D01*
X154474000Y-89300000D01*
X154542121Y-89320002D01*
G37*
%TD.AperFunction*%
%TD*%
%TA.AperFunction,Conductor*%
%TO.N,/L2_0*%
G36*
X128042121Y-51820002D02*
G01*
X128088614Y-51873658D01*
X128100000Y-51926000D01*
X128100000Y-58151177D01*
X128079998Y-58219298D01*
X128026342Y-58265791D01*
X128016059Y-58269950D01*
X127951608Y-58292773D01*
X127909549Y-58300000D01*
X115524195Y-58300000D01*
X115456074Y-58279998D01*
X115409581Y-58226342D01*
X115406212Y-58218226D01*
X115403765Y-58211698D01*
X115400615Y-58203295D01*
X115395235Y-58196116D01*
X115395233Y-58196113D01*
X115318642Y-58093919D01*
X115313261Y-58086739D01*
X115196705Y-57999385D01*
X115060316Y-57948255D01*
X114998134Y-57941500D01*
X114726000Y-57941500D01*
X114657879Y-57921498D01*
X114611386Y-57867842D01*
X114600000Y-57815500D01*
X114600000Y-51926000D01*
X114620002Y-51857879D01*
X114673658Y-51811386D01*
X114726000Y-51800000D01*
X127974000Y-51800000D01*
X128042121Y-51820002D01*
G37*
%TD.AperFunction*%
%TD*%
%TA.AperFunction,Conductor*%
%TO.N,/L3_1*%
G36*
X142542121Y-59320002D02*
G01*
X142588614Y-59373658D01*
X142600000Y-59426000D01*
X142600000Y-73174000D01*
X142579998Y-73242121D01*
X142526342Y-73288614D01*
X142474000Y-73300000D01*
X129226000Y-73300000D01*
X129157879Y-73279998D01*
X129111386Y-73226342D01*
X129100000Y-73174000D01*
X129100000Y-62448823D01*
X129120002Y-62380702D01*
X129173658Y-62334209D01*
X129183931Y-62330053D01*
X129439343Y-62239607D01*
X129694812Y-62107750D01*
X129698313Y-62105289D01*
X129698317Y-62105287D01*
X129812417Y-62025096D01*
X129930023Y-61942441D01*
X130140622Y-61746740D01*
X130322713Y-61524268D01*
X130472927Y-61279142D01*
X130588483Y-61015898D01*
X130667244Y-60739406D01*
X130707751Y-60454784D01*
X130709257Y-60167297D01*
X130671732Y-59882266D01*
X130595871Y-59604964D01*
X130540622Y-59475435D01*
X130532293Y-59404928D01*
X130563406Y-59341112D01*
X130624081Y-59304247D01*
X130656519Y-59300000D01*
X142474000Y-59300000D01*
X142542121Y-59320002D01*
G37*
%TD.AperFunction*%
%TD*%
%TA.AperFunction,Conductor*%
%TO.N,/L4_2*%
G36*
X154542121Y-74320002D02*
G01*
X154588614Y-74373658D01*
X154600000Y-74426000D01*
X154600000Y-88174000D01*
X154579998Y-88242121D01*
X154526342Y-88288614D01*
X154474000Y-88300000D01*
X145584500Y-88300000D01*
X145516379Y-88279998D01*
X145469886Y-88226342D01*
X145458500Y-88174000D01*
X145458500Y-87901866D01*
X145451745Y-87839684D01*
X145400615Y-87703295D01*
X145313261Y-87586739D01*
X145196705Y-87499385D01*
X145060316Y-87448255D01*
X144998134Y-87441500D01*
X143726000Y-87441500D01*
X143657879Y-87421498D01*
X143611386Y-87367842D01*
X143600000Y-87315500D01*
X143600000Y-74426000D01*
X143620002Y-74357879D01*
X143673658Y-74311386D01*
X143726000Y-74300000D01*
X154474000Y-74300000D01*
X154542121Y-74320002D01*
G37*
%TD.AperFunction*%
%TD*%
%TA.AperFunction,Conductor*%
%TO.N,/L4_1*%
G36*
X154542121Y-59320002D02*
G01*
X154588614Y-59373658D01*
X154600000Y-59426000D01*
X154600000Y-73174000D01*
X154579998Y-73242121D01*
X154526342Y-73288614D01*
X154474000Y-73300000D01*
X143726000Y-73300000D01*
X143657879Y-73279998D01*
X143611386Y-73226342D01*
X143600000Y-73174000D01*
X143600000Y-59426000D01*
X143620002Y-59357879D01*
X143673658Y-59311386D01*
X143726000Y-59300000D01*
X154474000Y-59300000D01*
X154542121Y-59320002D01*
G37*
%TD.AperFunction*%
%TD*%
%TA.AperFunction,Conductor*%
%TO.N,/L2_2*%
G36*
X128042121Y-74320002D02*
G01*
X128088614Y-74373658D01*
X128100000Y-74426000D01*
X128100000Y-85151177D01*
X128079998Y-85219298D01*
X128026342Y-85265791D01*
X128016069Y-85269947D01*
X127760657Y-85360393D01*
X127505188Y-85492250D01*
X127501687Y-85494711D01*
X127501683Y-85494713D01*
X127488734Y-85503814D01*
X127269977Y-85657559D01*
X127059378Y-85853260D01*
X126877287Y-86075732D01*
X126727073Y-86320858D01*
X126611517Y-86584102D01*
X126532756Y-86860594D01*
X126492249Y-87145216D01*
X126490743Y-87432703D01*
X126528268Y-87717734D01*
X126604129Y-87995036D01*
X126605813Y-87998984D01*
X126659378Y-88124565D01*
X126667707Y-88195072D01*
X126636594Y-88258888D01*
X126575919Y-88295753D01*
X126543481Y-88300000D01*
X114726000Y-88300000D01*
X114657879Y-88279998D01*
X114611386Y-88226342D01*
X114600000Y-88174000D01*
X114600000Y-74426000D01*
X114620002Y-74357879D01*
X114673658Y-74311386D01*
X114726000Y-74300000D01*
X127974000Y-74300000D01*
X128042121Y-74320002D01*
G37*
%TD.AperFunction*%
%TD*%
M02*
