M48
; DRILL file {KiCad 6.0.2+dfsg-1} date Sun 24 Sep 2023 08:15:29 PM CEST
; FORMAT={-:-/ absolute / metric / decimal}
; #@! TF.CreationDate,2023-09-24T20:15:29+02:00
; #@! TF.GenerationSoftware,Kicad,Pcbnew,6.0.2+dfsg-1
; #@! TF.FileFunction,Plated,1,2,PTH
FMAT,2
METRIC
; #@! TA.AperFunction,Plated,PTH,ViaDrill
T1C0.400
; #@! TA.AperFunction,Plated,PTH,ComponentDrill
T2C1.000
%
G90
G05
T1
X103.6Y-55.3
X103.6Y-57.3
X103.6Y-60.8
X103.6Y-71.8
X103.6Y-75.8
X103.6Y-86.8
X103.6Y-90.3
X109.6Y-57.3
X109.6Y-60.8
X109.6Y-71.8
X109.6Y-75.8
X109.6Y-86.8
X109.6Y-90.3
X111.6Y-60.8
X111.6Y-68.8
X111.6Y-78.8
X112.1Y-86.8
X112.1Y-90.3
X112.1Y-93.3
X116.1Y-68.8
X116.1Y-78.8
X116.1Y-86.8
X116.1Y-90.3
X116.1Y-93.3
X119.1Y-57.3
X119.1Y-60.8
X119.1Y-63.8
X119.1Y-71.8
X119.1Y-75.8
X119.1Y-86.8
X119.1Y-90.3
X119.1Y-93.3
X122.6Y-54.3
X124.1Y-57.3
X124.1Y-60.8
X124.1Y-63.8
X124.1Y-68.8
X124.1Y-71.8
X124.1Y-75.8
X124.1Y-86.8
X124.1Y-90.3
X124.1Y-93.3
X126.6Y-63.8
X126.6Y-68.8
X126.6Y-71.8
X126.6Y-75.8
X126.6Y-82.8
X126.6Y-93.3
X131.1Y-71.8
X131.1Y-82.8
X131.1Y-93.3
X131.6Y-75.8
X133.6Y-57.3
X134.1Y-60.8
X134.1Y-71.8
X134.1Y-86.8
X134.1Y-90.3
X134.1Y-93.3
X134.6Y-75.8
X135.6Y-53.8
X137.6Y-53.8
X139.1Y-57.3
X139.1Y-60.8
X139.1Y-71.8
X139.1Y-86.8
X139.1Y-90.3
X139.1Y-93.3
X139.6Y-75.8
X141.6Y-57.3
X141.6Y-60.8
X141.6Y-67.8
X141.6Y-79.3
X141.6Y-86.8
X142.1Y-90.3
X142.1Y-93.3
X144.6Y-57.3
X144.6Y-60.8
X144.6Y-67.8
X144.6Y-79.3
X145.1Y-86.8
X146.1Y-90.3
X146.1Y-93.8
X147.6Y-54.3
X147.6Y-57.3
X147.6Y-60.8
X147.6Y-71.8
X147.6Y-75.8
X147.6Y-86.8
X147.6Y-90.3
X153.1Y-55.8
X153.1Y-57.3
X153.1Y-60.8
X153.1Y-71.8
X153.1Y-75.8
X153.1Y-86.8
X153.6Y-90.3
T2
X114.1Y-59.3
X114.1Y-69.04
X116.6Y-64.04
X119.1Y-69.04
X144.1Y-88.8
T0
M30
