%FSLAX45Y45*%
G04 Gerber Fmt 4.5, Leading zero omitted, Abs format (unit mm)*
G04 Created by KiCad (PCBNEW 6.0.2+dfsg-1) date 2023-09-24 20:16:40*
%MOMM*%
%LPD*%
G01*
G04 APERTURE LIST*
%TA.AperFunction,Profile*%
%ADD10C,0.100000*%
%TD*%
%ADD11C,0.200000*%
%ADD12C,0.040000*%
%ADD13C,0.100000*%
G04 APERTURE END LIST*
D10*
X10160000Y-9330000D02*
X10160000Y-5430000D01*
X15160000Y-9330000D02*
X15160000Y-9680000D01*
X10560000Y-5430000D02*
X10160000Y-5430000D01*
X15160000Y-5080000D02*
X15160000Y-5430000D01*
X15560000Y-9330000D02*
X15160000Y-9330000D01*
X10560000Y-5080000D02*
X10560000Y-5430000D01*
X10160000Y-9330000D02*
X10560000Y-9330000D01*
X15160000Y-5430000D02*
X15560000Y-5430000D01*
X15560000Y-5430000D02*
X15560000Y-9330000D01*
X10560000Y-5080000D02*
X15160000Y-5080000D01*
X15160000Y-9680000D02*
X10560000Y-9680000D01*
X10560000Y-9330000D02*
X10560000Y-9680000D01*
D11*
D12*
X10340000Y-5510000D02*
X10380000Y-5550000D01*
X10380000Y-5510000D02*
X10340000Y-5550000D01*
X10340000Y-5710000D02*
X10380000Y-5750000D01*
X10380000Y-5710000D02*
X10340000Y-5750000D01*
X10340000Y-6060000D02*
X10380000Y-6100000D01*
X10380000Y-6060000D02*
X10340000Y-6100000D01*
X10340000Y-7160000D02*
X10380000Y-7200000D01*
X10380000Y-7160000D02*
X10340000Y-7200000D01*
X10340000Y-7560000D02*
X10380000Y-7600000D01*
X10380000Y-7560000D02*
X10340000Y-7600000D01*
X10340000Y-8660000D02*
X10380000Y-8700000D01*
X10380000Y-8660000D02*
X10340000Y-8700000D01*
X10340000Y-9010000D02*
X10380000Y-9050000D01*
X10380000Y-9010000D02*
X10340000Y-9050000D01*
X10940000Y-5710000D02*
X10980000Y-5750000D01*
X10980000Y-5710000D02*
X10940000Y-5750000D01*
X10940000Y-6060000D02*
X10980000Y-6100000D01*
X10980000Y-6060000D02*
X10940000Y-6100000D01*
X10940000Y-7160000D02*
X10980000Y-7200000D01*
X10980000Y-7160000D02*
X10940000Y-7200000D01*
X10940000Y-7560000D02*
X10980000Y-7600000D01*
X10980000Y-7560000D02*
X10940000Y-7600000D01*
X10940000Y-8660000D02*
X10980000Y-8700000D01*
X10980000Y-8660000D02*
X10940000Y-8700000D01*
X10940000Y-9010000D02*
X10980000Y-9050000D01*
X10980000Y-9010000D02*
X10940000Y-9050000D01*
X11140000Y-6060000D02*
X11180000Y-6100000D01*
X11180000Y-6060000D02*
X11140000Y-6100000D01*
X11140000Y-6860000D02*
X11180000Y-6900000D01*
X11180000Y-6860000D02*
X11140000Y-6900000D01*
X11140000Y-7860000D02*
X11180000Y-7900000D01*
X11180000Y-7860000D02*
X11140000Y-7900000D01*
X11190000Y-8660000D02*
X11230000Y-8700000D01*
X11230000Y-8660000D02*
X11190000Y-8700000D01*
X11190000Y-9010000D02*
X11230000Y-9050000D01*
X11230000Y-9010000D02*
X11190000Y-9050000D01*
X11190000Y-9310000D02*
X11230000Y-9350000D01*
X11230000Y-9310000D02*
X11190000Y-9350000D01*
X11590000Y-6860000D02*
X11630000Y-6900000D01*
X11630000Y-6860000D02*
X11590000Y-6900000D01*
X11590000Y-7860000D02*
X11630000Y-7900000D01*
X11630000Y-7860000D02*
X11590000Y-7900000D01*
X11590000Y-8660000D02*
X11630000Y-8700000D01*
X11630000Y-8660000D02*
X11590000Y-8700000D01*
X11590000Y-9010000D02*
X11630000Y-9050000D01*
X11630000Y-9010000D02*
X11590000Y-9050000D01*
X11590000Y-9310000D02*
X11630000Y-9350000D01*
X11630000Y-9310000D02*
X11590000Y-9350000D01*
X11890000Y-5710000D02*
X11930000Y-5750000D01*
X11930000Y-5710000D02*
X11890000Y-5750000D01*
X11890000Y-6060000D02*
X11930000Y-6100000D01*
X11930000Y-6060000D02*
X11890000Y-6100000D01*
X11890000Y-6360000D02*
X11930000Y-6400000D01*
X11930000Y-6360000D02*
X11890000Y-6400000D01*
X11890000Y-7160000D02*
X11930000Y-7200000D01*
X11930000Y-7160000D02*
X11890000Y-7200000D01*
X11890000Y-7560000D02*
X11930000Y-7600000D01*
X11930000Y-7560000D02*
X11890000Y-7600000D01*
X11890000Y-8660000D02*
X11930000Y-8700000D01*
X11930000Y-8660000D02*
X11890000Y-8700000D01*
X11890000Y-9010000D02*
X11930000Y-9050000D01*
X11930000Y-9010000D02*
X11890000Y-9050000D01*
X11890000Y-9310000D02*
X11930000Y-9350000D01*
X11930000Y-9310000D02*
X11890000Y-9350000D01*
X12240000Y-5410000D02*
X12280000Y-5450000D01*
X12280000Y-5410000D02*
X12240000Y-5450000D01*
X12390000Y-5710000D02*
X12430000Y-5750000D01*
X12430000Y-5710000D02*
X12390000Y-5750000D01*
X12390000Y-6060000D02*
X12430000Y-6100000D01*
X12430000Y-6060000D02*
X12390000Y-6100000D01*
X12390000Y-6360000D02*
X12430000Y-6400000D01*
X12430000Y-6360000D02*
X12390000Y-6400000D01*
X12390000Y-6860000D02*
X12430000Y-6900000D01*
X12430000Y-6860000D02*
X12390000Y-6900000D01*
X12390000Y-7160000D02*
X12430000Y-7200000D01*
X12430000Y-7160000D02*
X12390000Y-7200000D01*
X12390000Y-7560000D02*
X12430000Y-7600000D01*
X12430000Y-7560000D02*
X12390000Y-7600000D01*
X12390000Y-8660000D02*
X12430000Y-8700000D01*
X12430000Y-8660000D02*
X12390000Y-8700000D01*
X12390000Y-9010000D02*
X12430000Y-9050000D01*
X12430000Y-9010000D02*
X12390000Y-9050000D01*
X12390000Y-9310000D02*
X12430000Y-9350000D01*
X12430000Y-9310000D02*
X12390000Y-9350000D01*
X12640000Y-6360000D02*
X12680000Y-6400000D01*
X12680000Y-6360000D02*
X12640000Y-6400000D01*
X12640000Y-6860000D02*
X12680000Y-6900000D01*
X12680000Y-6860000D02*
X12640000Y-6900000D01*
X12640000Y-7160000D02*
X12680000Y-7200000D01*
X12680000Y-7160000D02*
X12640000Y-7200000D01*
X12640000Y-7560000D02*
X12680000Y-7600000D01*
X12680000Y-7560000D02*
X12640000Y-7600000D01*
X12640000Y-8260000D02*
X12680000Y-8300000D01*
X12680000Y-8260000D02*
X12640000Y-8300000D01*
X12640000Y-9310000D02*
X12680000Y-9350000D01*
X12680000Y-9310000D02*
X12640000Y-9350000D01*
X13090000Y-7160000D02*
X13130000Y-7200000D01*
X13130000Y-7160000D02*
X13090000Y-7200000D01*
X13090000Y-8260000D02*
X13130000Y-8300000D01*
X13130000Y-8260000D02*
X13090000Y-8300000D01*
X13090000Y-9310000D02*
X13130000Y-9350000D01*
X13130000Y-9310000D02*
X13090000Y-9350000D01*
X13140000Y-7560000D02*
X13180000Y-7600000D01*
X13180000Y-7560000D02*
X13140000Y-7600000D01*
X13340000Y-5710000D02*
X13380000Y-5750000D01*
X13380000Y-5710000D02*
X13340000Y-5750000D01*
X13390000Y-6060000D02*
X13430000Y-6100000D01*
X13430000Y-6060000D02*
X13390000Y-6100000D01*
X13390000Y-7160000D02*
X13430000Y-7200000D01*
X13430000Y-7160000D02*
X13390000Y-7200000D01*
X13390000Y-8660000D02*
X13430000Y-8700000D01*
X13430000Y-8660000D02*
X13390000Y-8700000D01*
X13390000Y-9010000D02*
X13430000Y-9050000D01*
X13430000Y-9010000D02*
X13390000Y-9050000D01*
X13390000Y-9310000D02*
X13430000Y-9350000D01*
X13430000Y-9310000D02*
X13390000Y-9350000D01*
X13440000Y-7560000D02*
X13480000Y-7600000D01*
X13480000Y-7560000D02*
X13440000Y-7600000D01*
X13540000Y-5360000D02*
X13580000Y-5400000D01*
X13580000Y-5360000D02*
X13540000Y-5400000D01*
X13740000Y-5360000D02*
X13780000Y-5400000D01*
X13780000Y-5360000D02*
X13740000Y-5400000D01*
X13890000Y-5710000D02*
X13930000Y-5750000D01*
X13930000Y-5710000D02*
X13890000Y-5750000D01*
X13890000Y-6060000D02*
X13930000Y-6100000D01*
X13930000Y-6060000D02*
X13890000Y-6100000D01*
X13890000Y-7160000D02*
X13930000Y-7200000D01*
X13930000Y-7160000D02*
X13890000Y-7200000D01*
X13890000Y-8660000D02*
X13930000Y-8700000D01*
X13930000Y-8660000D02*
X13890000Y-8700000D01*
X13890000Y-9010000D02*
X13930000Y-9050000D01*
X13930000Y-9010000D02*
X13890000Y-9050000D01*
X13890000Y-9310000D02*
X13930000Y-9350000D01*
X13930000Y-9310000D02*
X13890000Y-9350000D01*
X13940000Y-7560000D02*
X13980000Y-7600000D01*
X13980000Y-7560000D02*
X13940000Y-7600000D01*
X14140000Y-5710000D02*
X14180000Y-5750000D01*
X14180000Y-5710000D02*
X14140000Y-5750000D01*
X14140000Y-6060000D02*
X14180000Y-6100000D01*
X14180000Y-6060000D02*
X14140000Y-6100000D01*
X14140000Y-6760000D02*
X14180000Y-6800000D01*
X14180000Y-6760000D02*
X14140000Y-6800000D01*
X14140000Y-7910000D02*
X14180000Y-7950000D01*
X14180000Y-7910000D02*
X14140000Y-7950000D01*
X14140000Y-8660000D02*
X14180000Y-8700000D01*
X14180000Y-8660000D02*
X14140000Y-8700000D01*
X14190000Y-9010000D02*
X14230000Y-9050000D01*
X14230000Y-9010000D02*
X14190000Y-9050000D01*
X14190000Y-9310000D02*
X14230000Y-9350000D01*
X14230000Y-9310000D02*
X14190000Y-9350000D01*
X14440000Y-5710000D02*
X14480000Y-5750000D01*
X14480000Y-5710000D02*
X14440000Y-5750000D01*
X14440000Y-6060000D02*
X14480000Y-6100000D01*
X14480000Y-6060000D02*
X14440000Y-6100000D01*
X14440000Y-6760000D02*
X14480000Y-6800000D01*
X14480000Y-6760000D02*
X14440000Y-6800000D01*
X14440000Y-7910000D02*
X14480000Y-7950000D01*
X14480000Y-7910000D02*
X14440000Y-7950000D01*
X14490000Y-8660000D02*
X14530000Y-8700000D01*
X14530000Y-8660000D02*
X14490000Y-8700000D01*
X14590000Y-9010000D02*
X14630000Y-9050000D01*
X14630000Y-9010000D02*
X14590000Y-9050000D01*
X14590000Y-9360000D02*
X14630000Y-9400000D01*
X14630000Y-9360000D02*
X14590000Y-9400000D01*
X14740000Y-5410000D02*
X14780000Y-5450000D01*
X14780000Y-5410000D02*
X14740000Y-5450000D01*
X14740000Y-5710000D02*
X14780000Y-5750000D01*
X14780000Y-5710000D02*
X14740000Y-5750000D01*
X14740000Y-6060000D02*
X14780000Y-6100000D01*
X14780000Y-6060000D02*
X14740000Y-6100000D01*
X14740000Y-7160000D02*
X14780000Y-7200000D01*
X14780000Y-7160000D02*
X14740000Y-7200000D01*
X14740000Y-7560000D02*
X14780000Y-7600000D01*
X14780000Y-7560000D02*
X14740000Y-7600000D01*
X14740000Y-8660000D02*
X14780000Y-8700000D01*
X14780000Y-8660000D02*
X14740000Y-8700000D01*
X14740000Y-9010000D02*
X14780000Y-9050000D01*
X14780000Y-9010000D02*
X14740000Y-9050000D01*
X15290000Y-5560000D02*
X15330000Y-5600000D01*
X15330000Y-5560000D02*
X15290000Y-5600000D01*
X15290000Y-5710000D02*
X15330000Y-5750000D01*
X15330000Y-5710000D02*
X15290000Y-5750000D01*
X15290000Y-6060000D02*
X15330000Y-6100000D01*
X15330000Y-6060000D02*
X15290000Y-6100000D01*
X15290000Y-7160000D02*
X15330000Y-7200000D01*
X15330000Y-7160000D02*
X15290000Y-7200000D01*
X15290000Y-7560000D02*
X15330000Y-7600000D01*
X15330000Y-7560000D02*
X15290000Y-7600000D01*
X15290000Y-8660000D02*
X15330000Y-8700000D01*
X15330000Y-8660000D02*
X15290000Y-8700000D01*
X15340000Y-9010000D02*
X15380000Y-9050000D01*
X15380000Y-9010000D02*
X15340000Y-9050000D01*
D13*
X11460000Y-5930000D02*
G75*
G03*
X11460000Y-5930000I-50000J0D01*
G01*
X11460000Y-6904000D02*
G75*
G03*
X11460000Y-6904000I-50000J0D01*
G01*
X11710000Y-6404000D02*
G75*
G03*
X11710000Y-6404000I-50000J0D01*
G01*
X11960000Y-6904000D02*
G75*
G03*
X11960000Y-6904000I-50000J0D01*
G01*
X14460000Y-8880000D02*
G75*
G03*
X14460000Y-8880000I-50000J0D01*
G01*
D11*
X10412619Y-9995476D02*
X10412619Y-9795476D01*
X10460238Y-9795476D01*
X10488810Y-9805000D01*
X10507857Y-9824048D01*
X10517381Y-9843095D01*
X10526905Y-9881190D01*
X10526905Y-9909762D01*
X10517381Y-9947857D01*
X10507857Y-9966905D01*
X10488810Y-9985952D01*
X10460238Y-9995476D01*
X10412619Y-9995476D01*
X10612619Y-9995476D02*
X10612619Y-9862143D01*
X10612619Y-9900238D02*
X10622143Y-9881190D01*
X10631667Y-9871667D01*
X10650714Y-9862143D01*
X10669762Y-9862143D01*
X10736429Y-9995476D02*
X10736429Y-9862143D01*
X10736429Y-9795476D02*
X10726905Y-9805000D01*
X10736429Y-9814524D01*
X10745952Y-9805000D01*
X10736429Y-9795476D01*
X10736429Y-9814524D01*
X10860238Y-9995476D02*
X10841190Y-9985952D01*
X10831667Y-9966905D01*
X10831667Y-9795476D01*
X10965000Y-9995476D02*
X10945952Y-9985952D01*
X10936429Y-9966905D01*
X10936429Y-9795476D01*
X11193571Y-9995476D02*
X11193571Y-9795476D01*
X11260238Y-9938333D01*
X11326905Y-9795476D01*
X11326905Y-9995476D01*
X11507857Y-9995476D02*
X11507857Y-9890714D01*
X11498333Y-9871667D01*
X11479286Y-9862143D01*
X11441190Y-9862143D01*
X11422143Y-9871667D01*
X11507857Y-9985952D02*
X11488809Y-9995476D01*
X11441190Y-9995476D01*
X11422143Y-9985952D01*
X11412619Y-9966905D01*
X11412619Y-9947857D01*
X11422143Y-9928810D01*
X11441190Y-9919286D01*
X11488809Y-9919286D01*
X11507857Y-9909762D01*
X11603095Y-9862143D02*
X11603095Y-10062143D01*
X11603095Y-9871667D02*
X11622143Y-9862143D01*
X11660238Y-9862143D01*
X11679286Y-9871667D01*
X11688809Y-9881190D01*
X11698333Y-9900238D01*
X11698333Y-9957381D01*
X11688809Y-9976429D01*
X11679286Y-9985952D01*
X11660238Y-9995476D01*
X11622143Y-9995476D01*
X11603095Y-9985952D01*
X11784048Y-9976429D02*
X11793571Y-9985952D01*
X11784048Y-9995476D01*
X11774524Y-9985952D01*
X11784048Y-9976429D01*
X11784048Y-9995476D01*
X11784048Y-9871667D02*
X11793571Y-9881190D01*
X11784048Y-9890714D01*
X11774524Y-9881190D01*
X11784048Y-9871667D01*
X11784048Y-9890714D01*
D12*
X10115000Y-10305000D02*
X10155000Y-10345000D01*
X10155000Y-10305000D02*
X10115000Y-10345000D01*
D11*
X10450714Y-10215476D02*
X10469762Y-10215476D01*
X10488810Y-10225000D01*
X10498333Y-10234524D01*
X10507857Y-10253571D01*
X10517381Y-10291667D01*
X10517381Y-10339286D01*
X10507857Y-10377381D01*
X10498333Y-10396429D01*
X10488810Y-10405952D01*
X10469762Y-10415476D01*
X10450714Y-10415476D01*
X10431667Y-10405952D01*
X10422143Y-10396429D01*
X10412619Y-10377381D01*
X10403095Y-10339286D01*
X10403095Y-10291667D01*
X10412619Y-10253571D01*
X10422143Y-10234524D01*
X10431667Y-10225000D01*
X10450714Y-10215476D01*
X10603095Y-10396429D02*
X10612619Y-10405952D01*
X10603095Y-10415476D01*
X10593571Y-10405952D01*
X10603095Y-10396429D01*
X10603095Y-10415476D01*
X10784048Y-10282143D02*
X10784048Y-10415476D01*
X10736429Y-10205952D02*
X10688810Y-10348810D01*
X10812619Y-10348810D01*
X10926905Y-10215476D02*
X10945952Y-10215476D01*
X10965000Y-10225000D01*
X10974524Y-10234524D01*
X10984048Y-10253571D01*
X10993571Y-10291667D01*
X10993571Y-10339286D01*
X10984048Y-10377381D01*
X10974524Y-10396429D01*
X10965000Y-10405952D01*
X10945952Y-10415476D01*
X10926905Y-10415476D01*
X10907857Y-10405952D01*
X10898333Y-10396429D01*
X10888810Y-10377381D01*
X10879286Y-10339286D01*
X10879286Y-10291667D01*
X10888810Y-10253571D01*
X10898333Y-10234524D01*
X10907857Y-10225000D01*
X10926905Y-10215476D01*
X11117381Y-10215476D02*
X11136429Y-10215476D01*
X11155476Y-10225000D01*
X11165000Y-10234524D01*
X11174524Y-10253571D01*
X11184048Y-10291667D01*
X11184048Y-10339286D01*
X11174524Y-10377381D01*
X11165000Y-10396429D01*
X11155476Y-10405952D01*
X11136429Y-10415476D01*
X11117381Y-10415476D01*
X11098333Y-10405952D01*
X11088810Y-10396429D01*
X11079286Y-10377381D01*
X11069762Y-10339286D01*
X11069762Y-10291667D01*
X11079286Y-10253571D01*
X11088810Y-10234524D01*
X11098333Y-10225000D01*
X11117381Y-10215476D01*
X11269762Y-10415476D02*
X11269762Y-10282143D01*
X11269762Y-10301190D02*
X11279286Y-10291667D01*
X11298333Y-10282143D01*
X11326905Y-10282143D01*
X11345952Y-10291667D01*
X11355476Y-10310714D01*
X11355476Y-10415476D01*
X11355476Y-10310714D02*
X11365000Y-10291667D01*
X11384048Y-10282143D01*
X11412619Y-10282143D01*
X11431667Y-10291667D01*
X11441190Y-10310714D01*
X11441190Y-10415476D01*
X11536428Y-10415476D02*
X11536428Y-10282143D01*
X11536428Y-10301190D02*
X11545952Y-10291667D01*
X11565000Y-10282143D01*
X11593571Y-10282143D01*
X11612619Y-10291667D01*
X11622143Y-10310714D01*
X11622143Y-10415476D01*
X11622143Y-10310714D02*
X11631667Y-10291667D01*
X11650714Y-10282143D01*
X11679286Y-10282143D01*
X11698333Y-10291667D01*
X11707857Y-10310714D01*
X11707857Y-10415476D01*
X12098333Y-10205952D02*
X11926905Y-10463095D01*
X12355476Y-10215476D02*
X12374524Y-10215476D01*
X12393571Y-10225000D01*
X12403095Y-10234524D01*
X12412619Y-10253571D01*
X12422143Y-10291667D01*
X12422143Y-10339286D01*
X12412619Y-10377381D01*
X12403095Y-10396429D01*
X12393571Y-10405952D01*
X12374524Y-10415476D01*
X12355476Y-10415476D01*
X12336428Y-10405952D01*
X12326905Y-10396429D01*
X12317381Y-10377381D01*
X12307857Y-10339286D01*
X12307857Y-10291667D01*
X12317381Y-10253571D01*
X12326905Y-10234524D01*
X12336428Y-10225000D01*
X12355476Y-10215476D01*
X12507857Y-10396429D02*
X12517381Y-10405952D01*
X12507857Y-10415476D01*
X12498333Y-10405952D01*
X12507857Y-10396429D01*
X12507857Y-10415476D01*
X12641190Y-10215476D02*
X12660238Y-10215476D01*
X12679286Y-10225000D01*
X12688809Y-10234524D01*
X12698333Y-10253571D01*
X12707857Y-10291667D01*
X12707857Y-10339286D01*
X12698333Y-10377381D01*
X12688809Y-10396429D01*
X12679286Y-10405952D01*
X12660238Y-10415476D01*
X12641190Y-10415476D01*
X12622143Y-10405952D01*
X12612619Y-10396429D01*
X12603095Y-10377381D01*
X12593571Y-10339286D01*
X12593571Y-10291667D01*
X12603095Y-10253571D01*
X12612619Y-10234524D01*
X12622143Y-10225000D01*
X12641190Y-10215476D01*
X12898333Y-10415476D02*
X12784048Y-10415476D01*
X12841190Y-10415476D02*
X12841190Y-10215476D01*
X12822143Y-10244048D01*
X12803095Y-10263095D01*
X12784048Y-10272619D01*
X13079286Y-10215476D02*
X12984048Y-10215476D01*
X12974524Y-10310714D01*
X12984048Y-10301190D01*
X13003095Y-10291667D01*
X13050714Y-10291667D01*
X13069762Y-10301190D01*
X13079286Y-10310714D01*
X13088809Y-10329762D01*
X13088809Y-10377381D01*
X13079286Y-10396429D01*
X13069762Y-10405952D01*
X13050714Y-10415476D01*
X13003095Y-10415476D01*
X12984048Y-10405952D01*
X12974524Y-10396429D01*
X13155476Y-10215476D02*
X13288809Y-10215476D01*
X13203095Y-10415476D01*
X13355476Y-10215476D02*
X13355476Y-10253571D01*
X13431667Y-10215476D02*
X13431667Y-10253571D01*
X13726905Y-10491667D02*
X13717381Y-10482143D01*
X13698333Y-10453571D01*
X13688809Y-10434524D01*
X13679286Y-10405952D01*
X13669762Y-10358333D01*
X13669762Y-10320238D01*
X13679286Y-10272619D01*
X13688809Y-10244048D01*
X13698333Y-10225000D01*
X13717381Y-10196429D01*
X13726905Y-10186905D01*
X13812619Y-10415476D02*
X13850714Y-10415476D01*
X13869762Y-10405952D01*
X13879286Y-10396429D01*
X13898333Y-10367857D01*
X13907857Y-10329762D01*
X13907857Y-10253571D01*
X13898333Y-10234524D01*
X13888809Y-10225000D01*
X13869762Y-10215476D01*
X13831667Y-10215476D01*
X13812619Y-10225000D01*
X13803095Y-10234524D01*
X13793571Y-10253571D01*
X13793571Y-10301190D01*
X13803095Y-10320238D01*
X13812619Y-10329762D01*
X13831667Y-10339286D01*
X13869762Y-10339286D01*
X13888809Y-10329762D01*
X13898333Y-10320238D01*
X13907857Y-10301190D01*
X14079286Y-10215476D02*
X14041190Y-10215476D01*
X14022143Y-10225000D01*
X14012619Y-10234524D01*
X13993571Y-10263095D01*
X13984048Y-10301190D01*
X13984048Y-10377381D01*
X13993571Y-10396429D01*
X14003095Y-10405952D01*
X14022143Y-10415476D01*
X14060238Y-10415476D01*
X14079286Y-10405952D01*
X14088809Y-10396429D01*
X14098333Y-10377381D01*
X14098333Y-10329762D01*
X14088809Y-10310714D01*
X14079286Y-10301190D01*
X14060238Y-10291667D01*
X14022143Y-10291667D01*
X14003095Y-10301190D01*
X13993571Y-10310714D01*
X13984048Y-10329762D01*
X14336428Y-10415476D02*
X14336428Y-10215476D01*
X14422143Y-10415476D02*
X14422143Y-10310714D01*
X14412619Y-10291667D01*
X14393571Y-10282143D01*
X14365000Y-10282143D01*
X14345952Y-10291667D01*
X14336428Y-10301190D01*
X14545952Y-10415476D02*
X14526905Y-10405952D01*
X14517381Y-10396429D01*
X14507857Y-10377381D01*
X14507857Y-10320238D01*
X14517381Y-10301190D01*
X14526905Y-10291667D01*
X14545952Y-10282143D01*
X14574524Y-10282143D01*
X14593571Y-10291667D01*
X14603095Y-10301190D01*
X14612619Y-10320238D01*
X14612619Y-10377381D01*
X14603095Y-10396429D01*
X14593571Y-10405952D01*
X14574524Y-10415476D01*
X14545952Y-10415476D01*
X14726905Y-10415476D02*
X14707857Y-10405952D01*
X14698333Y-10386905D01*
X14698333Y-10215476D01*
X14879286Y-10405952D02*
X14860238Y-10415476D01*
X14822143Y-10415476D01*
X14803095Y-10405952D01*
X14793571Y-10386905D01*
X14793571Y-10310714D01*
X14803095Y-10291667D01*
X14822143Y-10282143D01*
X14860238Y-10282143D01*
X14879286Y-10291667D01*
X14888809Y-10310714D01*
X14888809Y-10329762D01*
X14793571Y-10348810D01*
X14965000Y-10405952D02*
X14984048Y-10415476D01*
X15022143Y-10415476D01*
X15041190Y-10405952D01*
X15050714Y-10386905D01*
X15050714Y-10377381D01*
X15041190Y-10358333D01*
X15022143Y-10348810D01*
X14993571Y-10348810D01*
X14974524Y-10339286D01*
X14965000Y-10320238D01*
X14965000Y-10310714D01*
X14974524Y-10291667D01*
X14993571Y-10282143D01*
X15022143Y-10282143D01*
X15041190Y-10291667D01*
X15117381Y-10491667D02*
X15126905Y-10482143D01*
X15145952Y-10453571D01*
X15155476Y-10434524D01*
X15165000Y-10405952D01*
X15174524Y-10358333D01*
X15174524Y-10320238D01*
X15165000Y-10272619D01*
X15155476Y-10244048D01*
X15145952Y-10225000D01*
X15126905Y-10196429D01*
X15117381Y-10186905D01*
D13*
X10155000Y-10589000D02*
G75*
G03*
X10155000Y-10589000I-50000J0D01*
G01*
D11*
X10517381Y-10679476D02*
X10403095Y-10679476D01*
X10460238Y-10679476D02*
X10460238Y-10479476D01*
X10441190Y-10508048D01*
X10422143Y-10527095D01*
X10403095Y-10536619D01*
X10603095Y-10660429D02*
X10612619Y-10669952D01*
X10603095Y-10679476D01*
X10593571Y-10669952D01*
X10603095Y-10660429D01*
X10603095Y-10679476D01*
X10736429Y-10479476D02*
X10755476Y-10479476D01*
X10774524Y-10489000D01*
X10784048Y-10498524D01*
X10793571Y-10517571D01*
X10803095Y-10555667D01*
X10803095Y-10603286D01*
X10793571Y-10641381D01*
X10784048Y-10660429D01*
X10774524Y-10669952D01*
X10755476Y-10679476D01*
X10736429Y-10679476D01*
X10717381Y-10669952D01*
X10707857Y-10660429D01*
X10698333Y-10641381D01*
X10688810Y-10603286D01*
X10688810Y-10555667D01*
X10698333Y-10517571D01*
X10707857Y-10498524D01*
X10717381Y-10489000D01*
X10736429Y-10479476D01*
X10926905Y-10479476D02*
X10945952Y-10479476D01*
X10965000Y-10489000D01*
X10974524Y-10498524D01*
X10984048Y-10517571D01*
X10993571Y-10555667D01*
X10993571Y-10603286D01*
X10984048Y-10641381D01*
X10974524Y-10660429D01*
X10965000Y-10669952D01*
X10945952Y-10679476D01*
X10926905Y-10679476D01*
X10907857Y-10669952D01*
X10898333Y-10660429D01*
X10888810Y-10641381D01*
X10879286Y-10603286D01*
X10879286Y-10555667D01*
X10888810Y-10517571D01*
X10898333Y-10498524D01*
X10907857Y-10489000D01*
X10926905Y-10479476D01*
X11117381Y-10479476D02*
X11136429Y-10479476D01*
X11155476Y-10489000D01*
X11165000Y-10498524D01*
X11174524Y-10517571D01*
X11184048Y-10555667D01*
X11184048Y-10603286D01*
X11174524Y-10641381D01*
X11165000Y-10660429D01*
X11155476Y-10669952D01*
X11136429Y-10679476D01*
X11117381Y-10679476D01*
X11098333Y-10669952D01*
X11088810Y-10660429D01*
X11079286Y-10641381D01*
X11069762Y-10603286D01*
X11069762Y-10555667D01*
X11079286Y-10517571D01*
X11088810Y-10498524D01*
X11098333Y-10489000D01*
X11117381Y-10479476D01*
X11269762Y-10679476D02*
X11269762Y-10546143D01*
X11269762Y-10565190D02*
X11279286Y-10555667D01*
X11298333Y-10546143D01*
X11326905Y-10546143D01*
X11345952Y-10555667D01*
X11355476Y-10574714D01*
X11355476Y-10679476D01*
X11355476Y-10574714D02*
X11365000Y-10555667D01*
X11384048Y-10546143D01*
X11412619Y-10546143D01*
X11431667Y-10555667D01*
X11441190Y-10574714D01*
X11441190Y-10679476D01*
X11536428Y-10679476D02*
X11536428Y-10546143D01*
X11536428Y-10565190D02*
X11545952Y-10555667D01*
X11565000Y-10546143D01*
X11593571Y-10546143D01*
X11612619Y-10555667D01*
X11622143Y-10574714D01*
X11622143Y-10679476D01*
X11622143Y-10574714D02*
X11631667Y-10555667D01*
X11650714Y-10546143D01*
X11679286Y-10546143D01*
X11698333Y-10555667D01*
X11707857Y-10574714D01*
X11707857Y-10679476D01*
X12098333Y-10469952D02*
X11926905Y-10727095D01*
X12355476Y-10479476D02*
X12374524Y-10479476D01*
X12393571Y-10489000D01*
X12403095Y-10498524D01*
X12412619Y-10517571D01*
X12422143Y-10555667D01*
X12422143Y-10603286D01*
X12412619Y-10641381D01*
X12403095Y-10660429D01*
X12393571Y-10669952D01*
X12374524Y-10679476D01*
X12355476Y-10679476D01*
X12336428Y-10669952D01*
X12326905Y-10660429D01*
X12317381Y-10641381D01*
X12307857Y-10603286D01*
X12307857Y-10555667D01*
X12317381Y-10517571D01*
X12326905Y-10498524D01*
X12336428Y-10489000D01*
X12355476Y-10479476D01*
X12507857Y-10660429D02*
X12517381Y-10669952D01*
X12507857Y-10679476D01*
X12498333Y-10669952D01*
X12507857Y-10660429D01*
X12507857Y-10679476D01*
X12641190Y-10479476D02*
X12660238Y-10479476D01*
X12679286Y-10489000D01*
X12688809Y-10498524D01*
X12698333Y-10517571D01*
X12707857Y-10555667D01*
X12707857Y-10603286D01*
X12698333Y-10641381D01*
X12688809Y-10660429D01*
X12679286Y-10669952D01*
X12660238Y-10679476D01*
X12641190Y-10679476D01*
X12622143Y-10669952D01*
X12612619Y-10660429D01*
X12603095Y-10641381D01*
X12593571Y-10603286D01*
X12593571Y-10555667D01*
X12603095Y-10517571D01*
X12612619Y-10498524D01*
X12622143Y-10489000D01*
X12641190Y-10479476D01*
X12774524Y-10479476D02*
X12898333Y-10479476D01*
X12831667Y-10555667D01*
X12860238Y-10555667D01*
X12879286Y-10565190D01*
X12888809Y-10574714D01*
X12898333Y-10593762D01*
X12898333Y-10641381D01*
X12888809Y-10660429D01*
X12879286Y-10669952D01*
X12860238Y-10679476D01*
X12803095Y-10679476D01*
X12784048Y-10669952D01*
X12774524Y-10660429D01*
X12993571Y-10679476D02*
X13031667Y-10679476D01*
X13050714Y-10669952D01*
X13060238Y-10660429D01*
X13079286Y-10631857D01*
X13088809Y-10593762D01*
X13088809Y-10517571D01*
X13079286Y-10498524D01*
X13069762Y-10489000D01*
X13050714Y-10479476D01*
X13012619Y-10479476D01*
X12993571Y-10489000D01*
X12984048Y-10498524D01*
X12974524Y-10517571D01*
X12974524Y-10565190D01*
X12984048Y-10584238D01*
X12993571Y-10593762D01*
X13012619Y-10603286D01*
X13050714Y-10603286D01*
X13069762Y-10593762D01*
X13079286Y-10584238D01*
X13088809Y-10565190D01*
X13260238Y-10546143D02*
X13260238Y-10679476D01*
X13212619Y-10469952D02*
X13165000Y-10612810D01*
X13288809Y-10612810D01*
X13355476Y-10479476D02*
X13355476Y-10517571D01*
X13431667Y-10479476D02*
X13431667Y-10517571D01*
X13726905Y-10755667D02*
X13717381Y-10746143D01*
X13698333Y-10717571D01*
X13688809Y-10698524D01*
X13679286Y-10669952D01*
X13669762Y-10622333D01*
X13669762Y-10584238D01*
X13679286Y-10536619D01*
X13688809Y-10508048D01*
X13698333Y-10489000D01*
X13717381Y-10460429D01*
X13726905Y-10450905D01*
X13898333Y-10479476D02*
X13803095Y-10479476D01*
X13793571Y-10574714D01*
X13803095Y-10565190D01*
X13822143Y-10555667D01*
X13869762Y-10555667D01*
X13888809Y-10565190D01*
X13898333Y-10574714D01*
X13907857Y-10593762D01*
X13907857Y-10641381D01*
X13898333Y-10660429D01*
X13888809Y-10669952D01*
X13869762Y-10679476D01*
X13822143Y-10679476D01*
X13803095Y-10669952D01*
X13793571Y-10660429D01*
X14145952Y-10679476D02*
X14145952Y-10479476D01*
X14231667Y-10679476D02*
X14231667Y-10574714D01*
X14222143Y-10555667D01*
X14203095Y-10546143D01*
X14174524Y-10546143D01*
X14155476Y-10555667D01*
X14145952Y-10565190D01*
X14355476Y-10679476D02*
X14336428Y-10669952D01*
X14326905Y-10660429D01*
X14317381Y-10641381D01*
X14317381Y-10584238D01*
X14326905Y-10565190D01*
X14336428Y-10555667D01*
X14355476Y-10546143D01*
X14384048Y-10546143D01*
X14403095Y-10555667D01*
X14412619Y-10565190D01*
X14422143Y-10584238D01*
X14422143Y-10641381D01*
X14412619Y-10660429D01*
X14403095Y-10669952D01*
X14384048Y-10679476D01*
X14355476Y-10679476D01*
X14536428Y-10679476D02*
X14517381Y-10669952D01*
X14507857Y-10650905D01*
X14507857Y-10479476D01*
X14688809Y-10669952D02*
X14669762Y-10679476D01*
X14631667Y-10679476D01*
X14612619Y-10669952D01*
X14603095Y-10650905D01*
X14603095Y-10574714D01*
X14612619Y-10555667D01*
X14631667Y-10546143D01*
X14669762Y-10546143D01*
X14688809Y-10555667D01*
X14698333Y-10574714D01*
X14698333Y-10593762D01*
X14603095Y-10612810D01*
X14774524Y-10669952D02*
X14793571Y-10679476D01*
X14831667Y-10679476D01*
X14850714Y-10669952D01*
X14860238Y-10650905D01*
X14860238Y-10641381D01*
X14850714Y-10622333D01*
X14831667Y-10612810D01*
X14803095Y-10612810D01*
X14784048Y-10603286D01*
X14774524Y-10584238D01*
X14774524Y-10574714D01*
X14784048Y-10555667D01*
X14803095Y-10546143D01*
X14831667Y-10546143D01*
X14850714Y-10555667D01*
X14926905Y-10755667D02*
X14936428Y-10746143D01*
X14955476Y-10717571D01*
X14965000Y-10698524D01*
X14974524Y-10669952D01*
X14984048Y-10622333D01*
X14984048Y-10584238D01*
X14974524Y-10536619D01*
X14965000Y-10508048D01*
X14955476Y-10489000D01*
X14936428Y-10460429D01*
X14926905Y-10450905D01*
M02*
