%TF.GenerationSoftware,KiCad,Pcbnew,6.0.2+dfsg-1*%
%TF.CreationDate,2023-09-24T18:39:49+02:00*%
%TF.ProjectId,lampetit-battery,6c616d70-6574-4697-942d-626174746572,rev?*%
%TF.SameCoordinates,Original*%
%TF.FileFunction,Legend,Top*%
%TF.FilePolarity,Positive*%
%FSLAX46Y46*%
G04 Gerber Fmt 4.6, Leading zero omitted, Abs format (unit mm)*
G04 Created by KiCad (PCBNEW 6.0.2+dfsg-1) date 2023-09-24 18:39:49*
%MOMM*%
%LPD*%
G01*
G04 APERTURE LIST*
G04 Aperture macros list*
%AMRoundRect*
0 Rectangle with rounded corners*
0 $1 Rounding radius*
0 $2 $3 $4 $5 $6 $7 $8 $9 X,Y pos of 4 corners*
0 Add a 4 corners polygon primitive as box body*
4,1,4,$2,$3,$4,$5,$6,$7,$8,$9,$2,$3,0*
0 Add four circle primitives for the rounded corners*
1,1,$1+$1,$2,$3*
1,1,$1+$1,$4,$5*
1,1,$1+$1,$6,$7*
1,1,$1+$1,$8,$9*
0 Add four rect primitives between the rounded corners*
20,1,$1+$1,$2,$3,$4,$5,0*
20,1,$1+$1,$4,$5,$6,$7,0*
20,1,$1+$1,$6,$7,$8,$9,0*
20,1,$1+$1,$8,$9,$2,$3,0*%
G04 Aperture macros list end*
%ADD10C,0.150000*%
%ADD11C,0.120000*%
%ADD12R,1.560000X1.560000*%
%ADD13C,1.560000*%
%ADD14R,1.500000X1.000000*%
%ADD15RoundRect,0.250000X-0.625000X0.400000X-0.625000X-0.400000X0.625000X-0.400000X0.625000X0.400000X0*%
%ADD16R,2.200000X2.500000*%
%ADD17R,2.200000X1.550000*%
%ADD18C,3.200000*%
%ADD19R,1.700000X1.700000*%
G04 APERTURE END LIST*
D10*
X115790476Y-79947380D02*
X115314285Y-79947380D01*
X115314285Y-78947380D01*
X116552380Y-79947380D02*
X116552380Y-79423571D01*
X116504761Y-79328333D01*
X116409523Y-79280714D01*
X116219047Y-79280714D01*
X116123809Y-79328333D01*
X116552380Y-79899761D02*
X116457142Y-79947380D01*
X116219047Y-79947380D01*
X116123809Y-79899761D01*
X116076190Y-79804523D01*
X116076190Y-79709285D01*
X116123809Y-79614047D01*
X116219047Y-79566428D01*
X116457142Y-79566428D01*
X116552380Y-79518809D01*
X117028571Y-79947380D02*
X117028571Y-79280714D01*
X117028571Y-79375952D02*
X117076190Y-79328333D01*
X117171428Y-79280714D01*
X117314285Y-79280714D01*
X117409523Y-79328333D01*
X117457142Y-79423571D01*
X117457142Y-79947380D01*
X117457142Y-79423571D02*
X117504761Y-79328333D01*
X117600000Y-79280714D01*
X117742857Y-79280714D01*
X117838095Y-79328333D01*
X117885714Y-79423571D01*
X117885714Y-79947380D01*
X118361904Y-79280714D02*
X118361904Y-80280714D01*
X118361904Y-79328333D02*
X118457142Y-79280714D01*
X118647619Y-79280714D01*
X118742857Y-79328333D01*
X118790476Y-79375952D01*
X118838095Y-79471190D01*
X118838095Y-79756904D01*
X118790476Y-79852142D01*
X118742857Y-79899761D01*
X118647619Y-79947380D01*
X118457142Y-79947380D01*
X118361904Y-79899761D01*
X119647619Y-79899761D02*
X119552380Y-79947380D01*
X119361904Y-79947380D01*
X119266666Y-79899761D01*
X119219047Y-79804523D01*
X119219047Y-79423571D01*
X119266666Y-79328333D01*
X119361904Y-79280714D01*
X119552380Y-79280714D01*
X119647619Y-79328333D01*
X119695238Y-79423571D01*
X119695238Y-79518809D01*
X119219047Y-79614047D01*
X119980952Y-79280714D02*
X120361904Y-79280714D01*
X120123809Y-78947380D02*
X120123809Y-79804523D01*
X120171428Y-79899761D01*
X120266666Y-79947380D01*
X120361904Y-79947380D01*
X120695238Y-79947380D02*
X120695238Y-79280714D01*
X120695238Y-78947380D02*
X120647619Y-78995000D01*
X120695238Y-79042619D01*
X120742857Y-78995000D01*
X120695238Y-78947380D01*
X120695238Y-79042619D01*
X121028571Y-79280714D02*
X121409523Y-79280714D01*
X121171428Y-78947380D02*
X121171428Y-79804523D01*
X121219047Y-79899761D01*
X121314285Y-79947380D01*
X121409523Y-79947380D01*
X122980952Y-79947380D02*
X122504761Y-79947380D01*
X122504761Y-78947380D01*
X123314285Y-79423571D02*
X123647619Y-79423571D01*
X123790476Y-79947380D02*
X123314285Y-79947380D01*
X123314285Y-78947380D01*
X123790476Y-78947380D01*
X124219047Y-79947380D02*
X124219047Y-78947380D01*
X124457142Y-78947380D01*
X124600000Y-78995000D01*
X124695238Y-79090238D01*
X124742857Y-79185476D01*
X124790476Y-79375952D01*
X124790476Y-79518809D01*
X124742857Y-79709285D01*
X124695238Y-79804523D01*
X124600000Y-79899761D01*
X124457142Y-79947380D01*
X124219047Y-79947380D01*
X126504761Y-79947380D02*
X125933333Y-79947380D01*
X126219047Y-79947380D02*
X126219047Y-78947380D01*
X126123809Y-79090238D01*
X126028571Y-79185476D01*
X125933333Y-79233095D01*
X126933333Y-79852142D02*
X126980952Y-79899761D01*
X126933333Y-79947380D01*
X126885714Y-79899761D01*
X126933333Y-79852142D01*
X126933333Y-79947380D01*
X127600000Y-78947380D02*
X127695238Y-78947380D01*
X127790476Y-78995000D01*
X127838095Y-79042619D01*
X127885714Y-79137857D01*
X127933333Y-79328333D01*
X127933333Y-79566428D01*
X127885714Y-79756904D01*
X127838095Y-79852142D01*
X127790476Y-79899761D01*
X127695238Y-79947380D01*
X127600000Y-79947380D01*
X127504761Y-79899761D01*
X127457142Y-79852142D01*
X127409523Y-79756904D01*
X127361904Y-79566428D01*
X127361904Y-79328333D01*
X127409523Y-79137857D01*
X127457142Y-79042619D01*
X127504761Y-78995000D01*
X127600000Y-78947380D01*
X115576190Y-81509761D02*
X115719047Y-81557380D01*
X115957142Y-81557380D01*
X116052380Y-81509761D01*
X116100000Y-81462142D01*
X116147619Y-81366904D01*
X116147619Y-81271666D01*
X116100000Y-81176428D01*
X116052380Y-81128809D01*
X115957142Y-81081190D01*
X115766666Y-81033571D01*
X115671428Y-80985952D01*
X115623809Y-80938333D01*
X115576190Y-80843095D01*
X115576190Y-80747857D01*
X115623809Y-80652619D01*
X115671428Y-80605000D01*
X115766666Y-80557380D01*
X116004761Y-80557380D01*
X116147619Y-80605000D01*
X116957142Y-81509761D02*
X116861904Y-81557380D01*
X116671428Y-81557380D01*
X116576190Y-81509761D01*
X116528571Y-81414523D01*
X116528571Y-81033571D01*
X116576190Y-80938333D01*
X116671428Y-80890714D01*
X116861904Y-80890714D01*
X116957142Y-80938333D01*
X117004761Y-81033571D01*
X117004761Y-81128809D01*
X116528571Y-81224047D01*
X117433333Y-80890714D02*
X117433333Y-81890714D01*
X117433333Y-80938333D02*
X117528571Y-80890714D01*
X117719047Y-80890714D01*
X117814285Y-80938333D01*
X117861904Y-80985952D01*
X117909523Y-81081190D01*
X117909523Y-81366904D01*
X117861904Y-81462142D01*
X117814285Y-81509761D01*
X117719047Y-81557380D01*
X117528571Y-81557380D01*
X117433333Y-81509761D01*
X118195238Y-80890714D02*
X118576190Y-80890714D01*
X118338095Y-80557380D02*
X118338095Y-81414523D01*
X118385714Y-81509761D01*
X118480952Y-81557380D01*
X118576190Y-81557380D01*
X119290476Y-81509761D02*
X119195238Y-81557380D01*
X119004761Y-81557380D01*
X118909523Y-81509761D01*
X118861904Y-81414523D01*
X118861904Y-81033571D01*
X118909523Y-80938333D01*
X119004761Y-80890714D01*
X119195238Y-80890714D01*
X119290476Y-80938333D01*
X119338095Y-81033571D01*
X119338095Y-81128809D01*
X118861904Y-81224047D01*
X119766666Y-81557380D02*
X119766666Y-80890714D01*
X119766666Y-80985952D02*
X119814285Y-80938333D01*
X119909523Y-80890714D01*
X120052380Y-80890714D01*
X120147619Y-80938333D01*
X120195238Y-81033571D01*
X120195238Y-81557380D01*
X120195238Y-81033571D02*
X120242857Y-80938333D01*
X120338095Y-80890714D01*
X120480952Y-80890714D01*
X120576190Y-80938333D01*
X120623809Y-81033571D01*
X120623809Y-81557380D01*
X121100000Y-81557380D02*
X121100000Y-80557380D01*
X121100000Y-80938333D02*
X121195238Y-80890714D01*
X121385714Y-80890714D01*
X121480952Y-80938333D01*
X121528571Y-80985952D01*
X121576190Y-81081190D01*
X121576190Y-81366904D01*
X121528571Y-81462142D01*
X121480952Y-81509761D01*
X121385714Y-81557380D01*
X121195238Y-81557380D01*
X121100000Y-81509761D01*
X122385714Y-81509761D02*
X122290476Y-81557380D01*
X122100000Y-81557380D01*
X122004761Y-81509761D01*
X121957142Y-81414523D01*
X121957142Y-81033571D01*
X122004761Y-80938333D01*
X122100000Y-80890714D01*
X122290476Y-80890714D01*
X122385714Y-80938333D01*
X122433333Y-81033571D01*
X122433333Y-81128809D01*
X121957142Y-81224047D01*
X122861904Y-81557380D02*
X122861904Y-80890714D01*
X122861904Y-81081190D02*
X122909523Y-80985952D01*
X122957142Y-80938333D01*
X123052380Y-80890714D01*
X123147619Y-80890714D01*
X124195238Y-80652619D02*
X124242857Y-80605000D01*
X124338095Y-80557380D01*
X124576190Y-80557380D01*
X124671428Y-80605000D01*
X124719047Y-80652619D01*
X124766666Y-80747857D01*
X124766666Y-80843095D01*
X124719047Y-80985952D01*
X124147619Y-81557380D01*
X124766666Y-81557380D01*
X125385714Y-80557380D02*
X125480952Y-80557380D01*
X125576190Y-80605000D01*
X125623809Y-80652619D01*
X125671428Y-80747857D01*
X125719047Y-80938333D01*
X125719047Y-81176428D01*
X125671428Y-81366904D01*
X125623809Y-81462142D01*
X125576190Y-81509761D01*
X125480952Y-81557380D01*
X125385714Y-81557380D01*
X125290476Y-81509761D01*
X125242857Y-81462142D01*
X125195238Y-81366904D01*
X125147619Y-81176428D01*
X125147619Y-80938333D01*
X125195238Y-80747857D01*
X125242857Y-80652619D01*
X125290476Y-80605000D01*
X125385714Y-80557380D01*
X126100000Y-80652619D02*
X126147619Y-80605000D01*
X126242857Y-80557380D01*
X126480952Y-80557380D01*
X126576190Y-80605000D01*
X126623809Y-80652619D01*
X126671428Y-80747857D01*
X126671428Y-80843095D01*
X126623809Y-80985952D01*
X126052380Y-81557380D01*
X126671428Y-81557380D01*
X127004761Y-80557380D02*
X127623809Y-80557380D01*
X127290476Y-80938333D01*
X127433333Y-80938333D01*
X127528571Y-80985952D01*
X127576190Y-81033571D01*
X127623809Y-81128809D01*
X127623809Y-81366904D01*
X127576190Y-81462142D01*
X127528571Y-81509761D01*
X127433333Y-81557380D01*
X127147619Y-81557380D01*
X127052380Y-81509761D01*
X127004761Y-81462142D01*
%TO.C,RV1*%
X122052380Y-69704761D02*
X121052380Y-69704761D01*
X121052380Y-69466666D01*
X121100000Y-69323809D01*
X121195238Y-69228571D01*
X121290476Y-69180952D01*
X121480952Y-69133333D01*
X121623809Y-69133333D01*
X121814285Y-69180952D01*
X121909523Y-69228571D01*
X122004761Y-69323809D01*
X122052380Y-69466666D01*
X122052380Y-69704761D01*
X122052380Y-68704761D02*
X121052380Y-68704761D01*
X122052380Y-68228571D02*
X121052380Y-68228571D01*
X121766666Y-67895238D01*
X121052380Y-67561904D01*
X122052380Y-67561904D01*
X122052380Y-67085714D02*
X121052380Y-67085714D01*
X121766666Y-66752380D01*
X121052380Y-66419047D01*
X122052380Y-66419047D01*
X122052380Y-65942857D02*
X121052380Y-65942857D01*
X122052380Y-65466666D02*
X121052380Y-65466666D01*
X122052380Y-64895238D01*
X121052380Y-64895238D01*
X121100000Y-63895238D02*
X121052380Y-63990476D01*
X121052380Y-64133333D01*
X121100000Y-64276190D01*
X121195238Y-64371428D01*
X121290476Y-64419047D01*
X121480952Y-64466666D01*
X121623809Y-64466666D01*
X121814285Y-64419047D01*
X121909523Y-64371428D01*
X122004761Y-64276190D01*
X122052380Y-64133333D01*
X122052380Y-64038095D01*
X122004761Y-63895238D01*
X121957142Y-63847619D01*
X121623809Y-63847619D01*
X121623809Y-64038095D01*
%TO.C,R5*%
X134052380Y-54466666D02*
X133576190Y-54800000D01*
X134052380Y-55038095D02*
X133052380Y-55038095D01*
X133052380Y-54657142D01*
X133100000Y-54561904D01*
X133147619Y-54514285D01*
X133242857Y-54466666D01*
X133385714Y-54466666D01*
X133480952Y-54514285D01*
X133528571Y-54561904D01*
X133576190Y-54657142D01*
X133576190Y-55038095D01*
X133052380Y-53561904D02*
X133052380Y-54038095D01*
X133528571Y-54085714D01*
X133480952Y-54038095D01*
X133433333Y-53942857D01*
X133433333Y-53704761D01*
X133480952Y-53609523D01*
X133528571Y-53561904D01*
X133623809Y-53514285D01*
X133861904Y-53514285D01*
X133957142Y-53561904D01*
X134004761Y-53609523D01*
X134052380Y-53704761D01*
X134052380Y-53942857D01*
X134004761Y-54038095D01*
X133957142Y-54085714D01*
%TO.C,D6*%
X119652380Y-89538095D02*
X118652380Y-89538095D01*
X118652380Y-89300000D01*
X118700000Y-89157142D01*
X118795238Y-89061904D01*
X118890476Y-89014285D01*
X119080952Y-88966666D01*
X119223809Y-88966666D01*
X119414285Y-89014285D01*
X119509523Y-89061904D01*
X119604761Y-89157142D01*
X119652380Y-89300000D01*
X119652380Y-89538095D01*
X118652380Y-88109523D02*
X118652380Y-88300000D01*
X118700000Y-88395238D01*
X118747619Y-88442857D01*
X118890476Y-88538095D01*
X119080952Y-88585714D01*
X119461904Y-88585714D01*
X119557142Y-88538095D01*
X119604761Y-88490476D01*
X119652380Y-88395238D01*
X119652380Y-88204761D01*
X119604761Y-88109523D01*
X119557142Y-88061904D01*
X119461904Y-88014285D01*
X119223809Y-88014285D01*
X119128571Y-88061904D01*
X119080952Y-88109523D01*
X119033333Y-88204761D01*
X119033333Y-88395238D01*
X119080952Y-88490476D01*
X119128571Y-88538095D01*
X119223809Y-88585714D01*
%TO.C,R7*%
X144052380Y-54466666D02*
X143576190Y-54800000D01*
X144052380Y-55038095D02*
X143052380Y-55038095D01*
X143052380Y-54657142D01*
X143100000Y-54561904D01*
X143147619Y-54514285D01*
X143242857Y-54466666D01*
X143385714Y-54466666D01*
X143480952Y-54514285D01*
X143528571Y-54561904D01*
X143576190Y-54657142D01*
X143576190Y-55038095D01*
X143052380Y-54133333D02*
X143052380Y-53466666D01*
X144052380Y-53895238D01*
%TO.C,D11*%
X148652380Y-75014285D02*
X147652380Y-75014285D01*
X147652380Y-74776190D01*
X147700000Y-74633333D01*
X147795238Y-74538095D01*
X147890476Y-74490476D01*
X148080952Y-74442857D01*
X148223809Y-74442857D01*
X148414285Y-74490476D01*
X148509523Y-74538095D01*
X148604761Y-74633333D01*
X148652380Y-74776190D01*
X148652380Y-75014285D01*
X148652380Y-73490476D02*
X148652380Y-74061904D01*
X148652380Y-73776190D02*
X147652380Y-73776190D01*
X147795238Y-73871428D01*
X147890476Y-73966666D01*
X147938095Y-74061904D01*
X148652380Y-72538095D02*
X148652380Y-73109523D01*
X148652380Y-72823809D02*
X147652380Y-72823809D01*
X147795238Y-72919047D01*
X147890476Y-73014285D01*
X147938095Y-73109523D01*
%TO.C,R8*%
X148052380Y-54466666D02*
X147576190Y-54800000D01*
X148052380Y-55038095D02*
X147052380Y-55038095D01*
X147052380Y-54657142D01*
X147100000Y-54561904D01*
X147147619Y-54514285D01*
X147242857Y-54466666D01*
X147385714Y-54466666D01*
X147480952Y-54514285D01*
X147528571Y-54561904D01*
X147576190Y-54657142D01*
X147576190Y-55038095D01*
X147480952Y-53895238D02*
X147433333Y-53990476D01*
X147385714Y-54038095D01*
X147290476Y-54085714D01*
X147242857Y-54085714D01*
X147147619Y-54038095D01*
X147100000Y-53990476D01*
X147052380Y-53895238D01*
X147052380Y-53704761D01*
X147100000Y-53609523D01*
X147147619Y-53561904D01*
X147242857Y-53514285D01*
X147290476Y-53514285D01*
X147385714Y-53561904D01*
X147433333Y-53609523D01*
X147480952Y-53704761D01*
X147480952Y-53895238D01*
X147528571Y-53990476D01*
X147576190Y-54038095D01*
X147671428Y-54085714D01*
X147861904Y-54085714D01*
X147957142Y-54038095D01*
X148004761Y-53990476D01*
X148052380Y-53895238D01*
X148052380Y-53704761D01*
X148004761Y-53609523D01*
X147957142Y-53561904D01*
X147861904Y-53514285D01*
X147671428Y-53514285D01*
X147576190Y-53561904D01*
X147528571Y-53609523D01*
X147480952Y-53704761D01*
%TO.C,R3*%
X122052380Y-54466666D02*
X121576190Y-54800000D01*
X122052380Y-55038095D02*
X121052380Y-55038095D01*
X121052380Y-54657142D01*
X121100000Y-54561904D01*
X121147619Y-54514285D01*
X121242857Y-54466666D01*
X121385714Y-54466666D01*
X121480952Y-54514285D01*
X121528571Y-54561904D01*
X121576190Y-54657142D01*
X121576190Y-55038095D01*
X121052380Y-54133333D02*
X121052380Y-53514285D01*
X121433333Y-53847619D01*
X121433333Y-53704761D01*
X121480952Y-53609523D01*
X121528571Y-53561904D01*
X121623809Y-53514285D01*
X121861904Y-53514285D01*
X121957142Y-53561904D01*
X122004761Y-53609523D01*
X122052380Y-53704761D01*
X122052380Y-53990476D01*
X122004761Y-54085714D01*
X121957142Y-54133333D01*
%TO.C,D4*%
X119652380Y-60063095D02*
X118652380Y-60063095D01*
X118652380Y-59825000D01*
X118700000Y-59682142D01*
X118795238Y-59586904D01*
X118890476Y-59539285D01*
X119080952Y-59491666D01*
X119223809Y-59491666D01*
X119414285Y-59539285D01*
X119509523Y-59586904D01*
X119604761Y-59682142D01*
X119652380Y-59825000D01*
X119652380Y-60063095D01*
X118985714Y-58634523D02*
X119652380Y-58634523D01*
X118604761Y-58872619D02*
X119319047Y-59110714D01*
X119319047Y-58491666D01*
%TO.C,D2*%
X104652380Y-74538095D02*
X103652380Y-74538095D01*
X103652380Y-74300000D01*
X103700000Y-74157142D01*
X103795238Y-74061904D01*
X103890476Y-74014285D01*
X104080952Y-73966666D01*
X104223809Y-73966666D01*
X104414285Y-74014285D01*
X104509523Y-74061904D01*
X104604761Y-74157142D01*
X104652380Y-74300000D01*
X104652380Y-74538095D01*
X103747619Y-73585714D02*
X103700000Y-73538095D01*
X103652380Y-73442857D01*
X103652380Y-73204761D01*
X103700000Y-73109523D01*
X103747619Y-73061904D01*
X103842857Y-73014285D01*
X103938095Y-73014285D01*
X104080952Y-73061904D01*
X104652380Y-73633333D01*
X104652380Y-73014285D01*
%TO.C,D5*%
X119652380Y-74538095D02*
X118652380Y-74538095D01*
X118652380Y-74300000D01*
X118700000Y-74157142D01*
X118795238Y-74061904D01*
X118890476Y-74014285D01*
X119080952Y-73966666D01*
X119223809Y-73966666D01*
X119414285Y-74014285D01*
X119509523Y-74061904D01*
X119604761Y-74157142D01*
X119652380Y-74300000D01*
X119652380Y-74538095D01*
X118652380Y-73061904D02*
X118652380Y-73538095D01*
X119128571Y-73585714D01*
X119080952Y-73538095D01*
X119033333Y-73442857D01*
X119033333Y-73204761D01*
X119080952Y-73109523D01*
X119128571Y-73061904D01*
X119223809Y-73014285D01*
X119461904Y-73014285D01*
X119557142Y-73061904D01*
X119604761Y-73109523D01*
X119652380Y-73204761D01*
X119652380Y-73442857D01*
X119604761Y-73538095D01*
X119557142Y-73585714D01*
%TO.C,D9*%
X134652380Y-89538095D02*
X133652380Y-89538095D01*
X133652380Y-89300000D01*
X133700000Y-89157142D01*
X133795238Y-89061904D01*
X133890476Y-89014285D01*
X134080952Y-88966666D01*
X134223809Y-88966666D01*
X134414285Y-89014285D01*
X134509523Y-89061904D01*
X134604761Y-89157142D01*
X134652380Y-89300000D01*
X134652380Y-89538095D01*
X134652380Y-88490476D02*
X134652380Y-88300000D01*
X134604761Y-88204761D01*
X134557142Y-88157142D01*
X134414285Y-88061904D01*
X134223809Y-88014285D01*
X133842857Y-88014285D01*
X133747619Y-88061904D01*
X133700000Y-88109523D01*
X133652380Y-88204761D01*
X133652380Y-88395238D01*
X133700000Y-88490476D01*
X133747619Y-88538095D01*
X133842857Y-88585714D01*
X134080952Y-88585714D01*
X134176190Y-88538095D01*
X134223809Y-88490476D01*
X134271428Y-88395238D01*
X134271428Y-88204761D01*
X134223809Y-88109523D01*
X134176190Y-88061904D01*
X134080952Y-88014285D01*
%TO.C,J2*%
X143338095Y-91300000D02*
X143242857Y-91252380D01*
X143100000Y-91252380D01*
X142957142Y-91300000D01*
X142861904Y-91395238D01*
X142814285Y-91490476D01*
X142766666Y-91680952D01*
X142766666Y-91823809D01*
X142814285Y-92014285D01*
X142861904Y-92109523D01*
X142957142Y-92204761D01*
X143100000Y-92252380D01*
X143195238Y-92252380D01*
X143338095Y-92204761D01*
X143385714Y-92157142D01*
X143385714Y-91823809D01*
X143195238Y-91823809D01*
X143814285Y-92252380D02*
X143814285Y-91252380D01*
X144385714Y-92252380D01*
X144385714Y-91252380D01*
X144861904Y-92252380D02*
X144861904Y-91252380D01*
X145100000Y-91252380D01*
X145242857Y-91300000D01*
X145338095Y-91395238D01*
X145385714Y-91490476D01*
X145433333Y-91680952D01*
X145433333Y-91823809D01*
X145385714Y-92014285D01*
X145338095Y-92109523D01*
X145242857Y-92204761D01*
X145100000Y-92252380D01*
X144861904Y-92252380D01*
%TO.C,J1*%
X113480952Y-62252380D02*
X112909523Y-62252380D01*
X113195238Y-62252380D02*
X113195238Y-61252380D01*
X113100000Y-61395238D01*
X113004761Y-61490476D01*
X112909523Y-61538095D01*
X113861904Y-61347619D02*
X113909523Y-61300000D01*
X114004761Y-61252380D01*
X114242857Y-61252380D01*
X114338095Y-61300000D01*
X114385714Y-61347619D01*
X114433333Y-61442857D01*
X114433333Y-61538095D01*
X114385714Y-61680952D01*
X113814285Y-62252380D01*
X114433333Y-62252380D01*
X114719047Y-61252380D02*
X115052380Y-62252380D01*
X115385714Y-61252380D01*
%TO.C,R1*%
X110052380Y-54466666D02*
X109576190Y-54800000D01*
X110052380Y-55038095D02*
X109052380Y-55038095D01*
X109052380Y-54657142D01*
X109100000Y-54561904D01*
X109147619Y-54514285D01*
X109242857Y-54466666D01*
X109385714Y-54466666D01*
X109480952Y-54514285D01*
X109528571Y-54561904D01*
X109576190Y-54657142D01*
X109576190Y-55038095D01*
X110052380Y-53514285D02*
X110052380Y-54085714D01*
X110052380Y-53800000D02*
X109052380Y-53800000D01*
X109195238Y-53895238D01*
X109290476Y-53990476D01*
X109338095Y-54085714D01*
%TO.C,D3*%
X104652380Y-89488095D02*
X103652380Y-89488095D01*
X103652380Y-89250000D01*
X103700000Y-89107142D01*
X103795238Y-89011904D01*
X103890476Y-88964285D01*
X104080952Y-88916666D01*
X104223809Y-88916666D01*
X104414285Y-88964285D01*
X104509523Y-89011904D01*
X104604761Y-89107142D01*
X104652380Y-89250000D01*
X104652380Y-89488095D01*
X103652380Y-88583333D02*
X103652380Y-87964285D01*
X104033333Y-88297619D01*
X104033333Y-88154761D01*
X104080952Y-88059523D01*
X104128571Y-88011904D01*
X104223809Y-87964285D01*
X104461904Y-87964285D01*
X104557142Y-88011904D01*
X104604761Y-88059523D01*
X104652380Y-88154761D01*
X104652380Y-88440476D01*
X104604761Y-88535714D01*
X104557142Y-88583333D01*
%TO.C,R2*%
X112052380Y-57966666D02*
X111576190Y-58300000D01*
X112052380Y-58538095D02*
X111052380Y-58538095D01*
X111052380Y-58157142D01*
X111100000Y-58061904D01*
X111147619Y-58014285D01*
X111242857Y-57966666D01*
X111385714Y-57966666D01*
X111480952Y-58014285D01*
X111528571Y-58061904D01*
X111576190Y-58157142D01*
X111576190Y-58538095D01*
X111147619Y-57585714D02*
X111100000Y-57538095D01*
X111052380Y-57442857D01*
X111052380Y-57204761D01*
X111100000Y-57109523D01*
X111147619Y-57061904D01*
X111242857Y-57014285D01*
X111338095Y-57014285D01*
X111480952Y-57061904D01*
X112052380Y-57633333D01*
X112052380Y-57014285D01*
%TO.C,D10*%
X148652380Y-60539285D02*
X147652380Y-60539285D01*
X147652380Y-60301190D01*
X147700000Y-60158333D01*
X147795238Y-60063095D01*
X147890476Y-60015476D01*
X148080952Y-59967857D01*
X148223809Y-59967857D01*
X148414285Y-60015476D01*
X148509523Y-60063095D01*
X148604761Y-60158333D01*
X148652380Y-60301190D01*
X148652380Y-60539285D01*
X148652380Y-59015476D02*
X148652380Y-59586904D01*
X148652380Y-59301190D02*
X147652380Y-59301190D01*
X147795238Y-59396428D01*
X147890476Y-59491666D01*
X147938095Y-59586904D01*
X147652380Y-58396428D02*
X147652380Y-58301190D01*
X147700000Y-58205952D01*
X147747619Y-58158333D01*
X147842857Y-58110714D01*
X148033333Y-58063095D01*
X148271428Y-58063095D01*
X148461904Y-58110714D01*
X148557142Y-58158333D01*
X148604761Y-58205952D01*
X148652380Y-58301190D01*
X148652380Y-58396428D01*
X148604761Y-58491666D01*
X148557142Y-58539285D01*
X148461904Y-58586904D01*
X148271428Y-58634523D01*
X148033333Y-58634523D01*
X147842857Y-58586904D01*
X147747619Y-58539285D01*
X147700000Y-58491666D01*
X147652380Y-58396428D01*
%TO.C,D8*%
X134652380Y-74538095D02*
X133652380Y-74538095D01*
X133652380Y-74300000D01*
X133700000Y-74157142D01*
X133795238Y-74061904D01*
X133890476Y-74014285D01*
X134080952Y-73966666D01*
X134223809Y-73966666D01*
X134414285Y-74014285D01*
X134509523Y-74061904D01*
X134604761Y-74157142D01*
X134652380Y-74300000D01*
X134652380Y-74538095D01*
X134080952Y-73395238D02*
X134033333Y-73490476D01*
X133985714Y-73538095D01*
X133890476Y-73585714D01*
X133842857Y-73585714D01*
X133747619Y-73538095D01*
X133700000Y-73490476D01*
X133652380Y-73395238D01*
X133652380Y-73204761D01*
X133700000Y-73109523D01*
X133747619Y-73061904D01*
X133842857Y-73014285D01*
X133890476Y-73014285D01*
X133985714Y-73061904D01*
X134033333Y-73109523D01*
X134080952Y-73204761D01*
X134080952Y-73395238D01*
X134128571Y-73490476D01*
X134176190Y-73538095D01*
X134271428Y-73585714D01*
X134461904Y-73585714D01*
X134557142Y-73538095D01*
X134604761Y-73490476D01*
X134652380Y-73395238D01*
X134652380Y-73204761D01*
X134604761Y-73109523D01*
X134557142Y-73061904D01*
X134461904Y-73014285D01*
X134271428Y-73014285D01*
X134176190Y-73061904D01*
X134128571Y-73109523D01*
X134080952Y-73204761D01*
%TO.C,D12*%
X148652380Y-90014285D02*
X147652380Y-90014285D01*
X147652380Y-89776190D01*
X147700000Y-89633333D01*
X147795238Y-89538095D01*
X147890476Y-89490476D01*
X148080952Y-89442857D01*
X148223809Y-89442857D01*
X148414285Y-89490476D01*
X148509523Y-89538095D01*
X148604761Y-89633333D01*
X148652380Y-89776190D01*
X148652380Y-90014285D01*
X148652380Y-88490476D02*
X148652380Y-89061904D01*
X148652380Y-88776190D02*
X147652380Y-88776190D01*
X147795238Y-88871428D01*
X147890476Y-88966666D01*
X147938095Y-89061904D01*
X147747619Y-88109523D02*
X147700000Y-88061904D01*
X147652380Y-87966666D01*
X147652380Y-87728571D01*
X147700000Y-87633333D01*
X147747619Y-87585714D01*
X147842857Y-87538095D01*
X147938095Y-87538095D01*
X148080952Y-87585714D01*
X148652380Y-88157142D01*
X148652380Y-87538095D01*
%TO.C,JP1*%
X116528571Y-58171428D02*
X116528571Y-57904761D01*
X117052380Y-57790476D02*
X117052380Y-58171428D01*
X116052380Y-58171428D01*
X116052380Y-57790476D01*
X117052380Y-57447619D02*
X116052380Y-57447619D01*
X117052380Y-56990476D01*
X116052380Y-56990476D01*
X116766666Y-56647619D02*
X116766666Y-56266666D01*
X117052380Y-56723809D02*
X116052380Y-56457142D01*
X117052380Y-56190476D01*
X116528571Y-55657142D02*
X116576190Y-55542857D01*
X116623809Y-55504761D01*
X116719047Y-55466666D01*
X116861904Y-55466666D01*
X116957142Y-55504761D01*
X117004761Y-55542857D01*
X117052380Y-55619047D01*
X117052380Y-55923809D01*
X116052380Y-55923809D01*
X116052380Y-55657142D01*
X116100000Y-55580952D01*
X116147619Y-55542857D01*
X116242857Y-55504761D01*
X116338095Y-55504761D01*
X116433333Y-55542857D01*
X116480952Y-55580952D01*
X116528571Y-55657142D01*
X116528571Y-55923809D01*
X117052380Y-54742857D02*
X117052380Y-55123809D01*
X116052380Y-55123809D01*
X116528571Y-54476190D02*
X116528571Y-54209523D01*
X117052380Y-54095238D02*
X117052380Y-54476190D01*
X116052380Y-54476190D01*
X116052380Y-54095238D01*
X117147619Y-53942857D02*
X117147619Y-53333333D01*
X117052380Y-53142857D02*
X116052380Y-53142857D01*
X116052380Y-52952380D01*
X116100000Y-52838095D01*
X116195238Y-52761904D01*
X116290476Y-52723809D01*
X116480952Y-52685714D01*
X116623809Y-52685714D01*
X116814285Y-52723809D01*
X116909523Y-52761904D01*
X117004761Y-52838095D01*
X117052380Y-52952380D01*
X117052380Y-53142857D01*
X117052380Y-52342857D02*
X116052380Y-52342857D01*
X117052380Y-51961904D02*
X116052380Y-51961904D01*
X116766666Y-51695238D01*
X116052380Y-51428571D01*
X117052380Y-51428571D01*
%TO.C,R4*%
X127872380Y-54466666D02*
X127396190Y-54800000D01*
X127872380Y-55038095D02*
X126872380Y-55038095D01*
X126872380Y-54657142D01*
X126920000Y-54561904D01*
X126967619Y-54514285D01*
X127062857Y-54466666D01*
X127205714Y-54466666D01*
X127300952Y-54514285D01*
X127348571Y-54561904D01*
X127396190Y-54657142D01*
X127396190Y-55038095D01*
X127205714Y-53609523D02*
X127872380Y-53609523D01*
X126824761Y-53847619D02*
X127539047Y-54085714D01*
X127539047Y-53466666D01*
%TO.C,D7*%
X134652380Y-60063095D02*
X133652380Y-60063095D01*
X133652380Y-59825000D01*
X133700000Y-59682142D01*
X133795238Y-59586904D01*
X133890476Y-59539285D01*
X134080952Y-59491666D01*
X134223809Y-59491666D01*
X134414285Y-59539285D01*
X134509523Y-59586904D01*
X134604761Y-59682142D01*
X134652380Y-59825000D01*
X134652380Y-60063095D01*
X133652380Y-59158333D02*
X133652380Y-58491666D01*
X134652380Y-58920238D01*
%TO.C,D1*%
X104652380Y-60063095D02*
X103652380Y-60063095D01*
X103652380Y-59825000D01*
X103700000Y-59682142D01*
X103795238Y-59586904D01*
X103890476Y-59539285D01*
X104080952Y-59491666D01*
X104223809Y-59491666D01*
X104414285Y-59539285D01*
X104509523Y-59586904D01*
X104604761Y-59682142D01*
X104652380Y-59825000D01*
X104652380Y-60063095D01*
X104652380Y-58539285D02*
X104652380Y-59110714D01*
X104652380Y-58825000D02*
X103652380Y-58825000D01*
X103795238Y-58920238D01*
X103890476Y-59015476D01*
X103938095Y-59110714D01*
%TO.C,R6*%
X139052380Y-54466666D02*
X138576190Y-54800000D01*
X139052380Y-55038095D02*
X138052380Y-55038095D01*
X138052380Y-54657142D01*
X138100000Y-54561904D01*
X138147619Y-54514285D01*
X138242857Y-54466666D01*
X138385714Y-54466666D01*
X138480952Y-54514285D01*
X138528571Y-54561904D01*
X138576190Y-54657142D01*
X138576190Y-55038095D01*
X138052380Y-53609523D02*
X138052380Y-53800000D01*
X138100000Y-53895238D01*
X138147619Y-53942857D01*
X138290476Y-54038095D01*
X138480952Y-54085714D01*
X138861904Y-54085714D01*
X138957142Y-54038095D01*
X139004761Y-53990476D01*
X139052380Y-53895238D01*
X139052380Y-53704761D01*
X139004761Y-53609523D01*
X138957142Y-53561904D01*
X138861904Y-53514285D01*
X138623809Y-53514285D01*
X138528571Y-53561904D01*
X138480952Y-53609523D01*
X138433333Y-53704761D01*
X138433333Y-53895238D01*
X138480952Y-53990476D01*
X138528571Y-54038095D01*
X138623809Y-54085714D01*
D11*
%TO.C,RV1*%
X114810000Y-70450000D02*
X113390000Y-70450000D01*
X113290000Y-70250000D02*
X113290000Y-69560000D01*
X118390000Y-70250000D02*
X118390000Y-70450000D01*
X118390000Y-70250000D02*
X114810000Y-70250000D01*
X113390000Y-70250000D02*
X113290000Y-70250000D01*
X119910000Y-70250000D02*
X119910000Y-70000000D01*
X119810000Y-70450000D02*
X119810000Y-70250000D01*
X119810000Y-70250000D02*
X119910000Y-70250000D01*
X113390000Y-70450000D02*
X113390000Y-70250000D01*
X114600000Y-63230000D02*
X116090000Y-63230000D01*
X113290000Y-68520000D02*
X113290000Y-64540000D01*
X119810000Y-70450000D02*
X118390000Y-70450000D01*
X114810000Y-70250000D02*
X114810000Y-70450000D01*
X119910000Y-64540000D02*
X119910000Y-68080000D01*
X117110000Y-63230000D02*
X118600000Y-63230000D01*
X119910000Y-64540000D02*
G75*
G03*
X118600000Y-63230000I-1310000J0D01*
G01*
X114600000Y-63230000D02*
G75*
G03*
X113290000Y-64540000I0J-1310000D01*
G01*
%TO.C,JP3*%
X120600000Y-93400000D02*
X122600000Y-93400000D01*
X122600000Y-96200000D02*
X120600000Y-96200000D01*
X120600000Y-96200000D02*
X120600000Y-93400000D01*
X122600000Y-93400000D02*
X122600000Y-96200000D01*
%TO.C,R5*%
X132510000Y-53572936D02*
X132510000Y-55027064D01*
X130690000Y-53572936D02*
X130690000Y-55027064D01*
%TO.C,D6*%
X123200000Y-87400000D02*
X123200000Y-91300000D01*
X120000000Y-91300000D02*
X123200000Y-91300000D01*
X120000000Y-87400000D02*
X120000000Y-91300000D01*
%TO.C,R7*%
X144690000Y-53572936D02*
X144690000Y-55027064D01*
X146510000Y-53572936D02*
X146510000Y-55027064D01*
%TO.C,JP2*%
X107600000Y-93400000D02*
X109600000Y-93400000D01*
X109600000Y-93400000D02*
X109600000Y-96200000D01*
X107600000Y-96200000D02*
X107600000Y-93400000D01*
X109600000Y-96200000D02*
X107600000Y-96200000D01*
%TO.C,D11*%
X152200000Y-72400000D02*
X152200000Y-76300000D01*
X149000000Y-76300000D02*
X152200000Y-76300000D01*
X149000000Y-72400000D02*
X149000000Y-76300000D01*
%TO.C,R8*%
X148690000Y-53572936D02*
X148690000Y-55027064D01*
X150510000Y-53572936D02*
X150510000Y-55027064D01*
%TO.C,R3*%
X118690000Y-53572936D02*
X118690000Y-55027064D01*
X120510000Y-53572936D02*
X120510000Y-55027064D01*
%TO.C,D4*%
X123200000Y-57925000D02*
X123200000Y-61825000D01*
X120000000Y-57925000D02*
X120000000Y-61825000D01*
X120000000Y-61825000D02*
X123200000Y-61825000D01*
%TO.C,D2*%
X105000000Y-76300000D02*
X108200000Y-76300000D01*
X105000000Y-72400000D02*
X105000000Y-76300000D01*
X108200000Y-72400000D02*
X108200000Y-76300000D01*
%TO.C,D5*%
X123200000Y-72400000D02*
X123200000Y-76300000D01*
X120000000Y-76300000D02*
X123200000Y-76300000D01*
X120000000Y-72400000D02*
X120000000Y-76300000D01*
%TO.C,JP5*%
X148600000Y-93400000D02*
X150600000Y-93400000D01*
X148600000Y-96200000D02*
X148600000Y-93400000D01*
X150600000Y-93400000D02*
X150600000Y-96200000D01*
X150600000Y-96200000D02*
X148600000Y-96200000D01*
%TO.C,D9*%
X135000000Y-87400000D02*
X135000000Y-91300000D01*
X138200000Y-87400000D02*
X138200000Y-91300000D01*
X135000000Y-91300000D02*
X138200000Y-91300000D01*
%TO.C,J2*%
X145370000Y-90130000D02*
X145430000Y-90130000D01*
X144100000Y-90130000D02*
X142770000Y-90130000D01*
X145370000Y-87470000D02*
X145430000Y-87470000D01*
X145430000Y-90130000D02*
X145430000Y-87470000D01*
X145370000Y-90130000D02*
X145370000Y-87470000D01*
X142770000Y-90130000D02*
X142770000Y-88800000D01*
%TO.C,J1*%
X115370000Y-57970000D02*
X115430000Y-57970000D01*
X115370000Y-60630000D02*
X115370000Y-57970000D01*
X115430000Y-60630000D02*
X115430000Y-57970000D01*
X112770000Y-60630000D02*
X112770000Y-59300000D01*
X114100000Y-60630000D02*
X112770000Y-60630000D01*
X115370000Y-60630000D02*
X115430000Y-60630000D01*
%TO.C,R1*%
X108510000Y-53572936D02*
X108510000Y-55027064D01*
X106690000Y-53572936D02*
X106690000Y-55027064D01*
%TO.C,D3*%
X105000000Y-87350000D02*
X105000000Y-91250000D01*
X108200000Y-87350000D02*
X108200000Y-91250000D01*
X105000000Y-91250000D02*
X108200000Y-91250000D01*
%TO.C,R2*%
X110690000Y-53572936D02*
X110690000Y-55027064D01*
X112510000Y-53572936D02*
X112510000Y-55027064D01*
%TO.C,D10*%
X152200000Y-57925000D02*
X152200000Y-61825000D01*
X149000000Y-57925000D02*
X149000000Y-61825000D01*
X149000000Y-61825000D02*
X152200000Y-61825000D01*
%TO.C,D8*%
X135000000Y-72400000D02*
X135000000Y-76300000D01*
X138200000Y-72400000D02*
X138200000Y-76300000D01*
X135000000Y-76300000D02*
X138200000Y-76300000D01*
%TO.C,D12*%
X152200000Y-87400000D02*
X152200000Y-91300000D01*
X149000000Y-91300000D02*
X152200000Y-91300000D01*
X149000000Y-87400000D02*
X149000000Y-91300000D01*
%TO.C,JP4*%
X137600000Y-93400000D02*
X137600000Y-96200000D01*
X135600000Y-96200000D02*
X135600000Y-93400000D01*
X135600000Y-93400000D02*
X137600000Y-93400000D01*
X137600000Y-96200000D02*
X135600000Y-96200000D01*
%TO.C,JP1*%
X113100000Y-53400000D02*
X115100000Y-53400000D01*
X113100000Y-56200000D02*
X113100000Y-53400000D01*
X115100000Y-56200000D02*
X113100000Y-56200000D01*
X115100000Y-53400000D02*
X115100000Y-56200000D01*
%TO.C,R4*%
X124690000Y-53572936D02*
X124690000Y-55027064D01*
X126510000Y-53572936D02*
X126510000Y-55027064D01*
%TO.C,D7*%
X135000000Y-57925000D02*
X135000000Y-61825000D01*
X138200000Y-57925000D02*
X138200000Y-61825000D01*
X135000000Y-61825000D02*
X138200000Y-61825000D01*
%TO.C,D1*%
X105000000Y-61825000D02*
X108200000Y-61825000D01*
X105000000Y-57925000D02*
X105000000Y-61825000D01*
X108200000Y-57925000D02*
X108200000Y-61825000D01*
%TO.C,R6*%
X139690000Y-53572936D02*
X139690000Y-55027064D01*
X141510000Y-53572936D02*
X141510000Y-55027064D01*
%TD*%
%LPC*%
D12*
%TO.C,RV1*%
X119100000Y-69040000D03*
D13*
X116600000Y-64040000D03*
X114100000Y-69040000D03*
%TD*%
D14*
%TO.C,JP3*%
X121600000Y-94150000D03*
X121600000Y-95450000D03*
%TD*%
D15*
%TO.C,R5*%
X131600000Y-52750000D03*
X131600000Y-55850000D03*
%TD*%
D16*
%TO.C,D6*%
X121600000Y-89850000D03*
D17*
X121600000Y-87275000D03*
%TD*%
D18*
%TO.C,REF\u002A\u002A*%
X128600000Y-60300000D03*
%TD*%
D15*
%TO.C,R7*%
X145600000Y-52750000D03*
X145600000Y-55850000D03*
%TD*%
D14*
%TO.C,JP2*%
X108600000Y-94150000D03*
X108600000Y-95450000D03*
%TD*%
D16*
%TO.C,D11*%
X150600000Y-74850000D03*
D17*
X150600000Y-72275000D03*
%TD*%
D15*
%TO.C,R8*%
X149600000Y-52750000D03*
X149600000Y-55850000D03*
%TD*%
%TO.C,R3*%
X119600000Y-52750000D03*
X119600000Y-55850000D03*
%TD*%
D16*
%TO.C,D4*%
X121600000Y-60375000D03*
D17*
X121600000Y-57800000D03*
%TD*%
D16*
%TO.C,D2*%
X106600000Y-74850000D03*
D17*
X106600000Y-72275000D03*
%TD*%
D16*
%TO.C,D5*%
X121600000Y-74850000D03*
D17*
X121600000Y-72275000D03*
%TD*%
D14*
%TO.C,JP5*%
X149600000Y-94150000D03*
X149600000Y-95450000D03*
%TD*%
D16*
%TO.C,D9*%
X136600000Y-89850000D03*
D17*
X136600000Y-87275000D03*
%TD*%
D19*
%TO.C,J2*%
X144100000Y-88800000D03*
%TD*%
%TO.C,J1*%
X114100000Y-59300000D03*
%TD*%
D15*
%TO.C,R1*%
X107600000Y-52750000D03*
X107600000Y-55850000D03*
%TD*%
D16*
%TO.C,D3*%
X106600000Y-89800000D03*
D17*
X106600000Y-87225000D03*
%TD*%
D15*
%TO.C,R2*%
X111600000Y-52750000D03*
X111600000Y-55850000D03*
%TD*%
D16*
%TO.C,D10*%
X150600000Y-60375000D03*
D17*
X150600000Y-57800000D03*
%TD*%
D16*
%TO.C,D8*%
X136600000Y-74850000D03*
D17*
X136600000Y-72275000D03*
%TD*%
D16*
%TO.C,D12*%
X150600000Y-89850000D03*
D17*
X150600000Y-87275000D03*
%TD*%
D14*
%TO.C,JP4*%
X136600000Y-94150000D03*
X136600000Y-95450000D03*
%TD*%
%TO.C,JP1*%
X114100000Y-54150000D03*
X114100000Y-55450000D03*
%TD*%
D15*
%TO.C,R4*%
X125600000Y-52750000D03*
X125600000Y-55850000D03*
%TD*%
D16*
%TO.C,D7*%
X136600000Y-60375000D03*
D17*
X136600000Y-57800000D03*
%TD*%
D18*
%TO.C,REF\u002A\u002A*%
X128600000Y-87300000D03*
%TD*%
D16*
%TO.C,D1*%
X106600000Y-60375000D03*
D17*
X106600000Y-57800000D03*
%TD*%
D15*
%TO.C,R6*%
X140600000Y-52750000D03*
X140600000Y-55850000D03*
%TD*%
M02*
